<?xml version="1.0" encoding="utf-8" standalone="no"?>
<!DOCTYPE svg PUBLIC "-//W3C//DTD SVG 1.1//EN"
  "http://www.w3.org/Graphics/SVG/1.1/DTD/svg11.dtd">
<svg xmlns:xlink="http://www.w3.org/1999/xlink" width="576pt" height="360pt" viewBox="0 0 576 360" xmlns="http://www.w3.org/2000/svg" version="1.1">
 <metadata>
  <rdf:RDF xmlns:dc="http://purl.org/dc/elements/1.1/" xmlns:cc="http://creativecommons.org/ns#" xmlns:rdf="http://www.w3.org/1999/02/22-rdf-syntax-ns#">
   <cc:Work>
    <dc:type rdf:resource="http://purl.org/dc/dcmitype/StillImage"/>
    <dc:date>2025-03-28T11:46:22.001171</dc:date>
    <dc:format>image/svg+xml</dc:format>
    <dc:creator>
     <cc:Agent>
      <dc:title>Matplotlib v3.10.0, https://matplotlib.org/</dc:title>
     </cc:Agent>
    </dc:creator>
   </cc:Work>
  </rdf:RDF>
 </metadata>
 <defs>
  <style type="text/css">*{stroke-linejoin: round; stroke-linecap: butt}</style>
 </defs>
 <g id="figure_1">
  <g id="patch_1">
   <path d="M 0 360 
L 576 360 
L 576 0 
L 0 0 
z
" style="fill: #ffffff"/>
  </g>
  <g id="axes_1">
   <g id="patch_2">
    <path d="M 72 320.4 
L 518.4 320.4 
L 518.4 43.2 
L 72 43.2 
z
" style="fill: #ffffff"/>
   </g>
   <g id="patch_3">
    <path d="M 92.290909 320.4 
L 208.238961 320.4 
L 208.238961 251.646043 
L 92.290909 251.646043 
z
" clip-path="url(#p5fc621a1ed)" style="fill: #008000; opacity: 0.7"/>
   </g>
   <g id="patch_4">
    <path d="M 237.225974 320.4 
L 353.174026 320.4 
L 353.174026 56.4 
L 237.225974 56.4 
z
" clip-path="url(#p5fc621a1ed)" style="fill: #008000; opacity: 0.7"/>
   </g>
   <g id="patch_5">
    <path d="M 382.161039 320.4 
L 498.109091 320.4 
L 498.109091 278.235971 
L 382.161039 278.235971 
z
" clip-path="url(#p5fc621a1ed)" style="fill: #008000; opacity: 0.7"/>
   </g>
   <g id="matplotlib.axis_1">
    <g id="xtick_1">
     <g id="line2d_1">
      <defs>
       <path id="m76ad06c304" d="M 0 0 
L 0 3.5 
" style="stroke: #000000; stroke-width: 0.8"/>
      </defs>
      <g>
       <use xlink:href="#m76ad06c304" x="150.264935" y="320.4" style="stroke: #000000; stroke-width: 0.8"/>
      </g>
     </g>
     <g id="text_1">
      <!-- 16QAM -->
      <g transform="translate(131.991498 335.39375) scale(0.1 -0.1)">
       <defs>
        <path id="MicrosoftYaHei-31" d="M 1781 0 
L 1781 4141 
Q 1638 3997 1295 3819 
Q 953 3641 663 3569 
L 663 4169 
Q 1047 4275 1484 4508 
Q 1922 4741 2156 4947 
L 2388 4947 
L 2388 0 
L 1781 0 
z
" transform="scale(0.015625)"/>
        <path id="MicrosoftYaHei-36" d="M 3181 4219 
Q 2803 4413 2391 4413 
Q 1763 4413 1381 3866 
Q 1000 3319 994 2372 
L 1009 2372 
Q 1353 3038 2106 3038 
Q 2734 3038 3109 2628 
Q 3484 2219 3484 1541 
Q 3484 831 3051 375 
Q 2619 -81 1947 -81 
Q 1209 -81 789 495 
Q 369 1072 369 2131 
Q 369 3413 920 4167 
Q 1472 4922 2372 4922 
Q 2888 4922 3181 4781 
L 3181 4219 
z
M 1031 1584 
Q 1031 1106 1286 765 
Q 1541 425 1963 425 
Q 2363 425 2613 719 
Q 2863 1013 2863 1475 
Q 2863 1975 2627 2253 
Q 2391 2531 1956 2531 
Q 1544 2531 1287 2250 
Q 1031 1969 1031 1584 
z
" transform="scale(0.015625)"/>
        <path id="MicrosoftYaHei-51" d="M 313 2363 
Q 313 3534 947 4228 
Q 1581 4922 2666 4922 
Q 3675 4922 4290 4244 
Q 4906 3566 4906 2478 
Q 4906 1300 4275 609 
Q 4125 447 3953 322 
L 5313 -653 
L 4284 -653 
L 3366 28 
Q 3009 -81 2588 -81 
Q 1556 -81 934 597 
Q 313 1275 313 2363 
z
M 969 2413 
Q 969 1534 1417 1004 
Q 1866 475 2588 475 
Q 3363 475 3805 983 
Q 4247 1491 4247 2403 
Q 4247 3341 3814 3850 
Q 3381 4359 2628 4359 
Q 1888 4359 1428 3821 
Q 969 3284 969 2413 
z
" transform="scale(0.015625)"/>
        <path id="MicrosoftYaHei-41" d="M 4428 0 
L 3738 0 
L 3244 1325 
L 1228 1325 
L 763 0 
L 72 0 
L 1916 4841 
L 2584 4841 
L 4428 0 
z
M 3050 1872 
L 2319 3884 
Q 2284 3981 2244 4222 
L 2228 4222 
Q 2194 4003 2150 3884 
L 1425 1872 
L 3050 1872 
z
" transform="scale(0.015625)"/>
        <path id="MicrosoftYaHei-4d" d="M 5003 0 
L 5003 3206 
Q 5003 3603 5050 4159 
L 5034 4159 
Q 4953 3809 4891 3672 
L 3294 0 
L 2947 0 
L 1353 3644 
Q 1297 3769 1209 4159 
L 1191 4159 
Q 1222 3822 1222 3178 
L 1222 0 
L 625 0 
L 625 4841 
L 1472 4841 
L 2900 1522 
Q 3063 1141 3116 928 
L 3138 928 
Q 3300 1375 3366 1534 
L 4819 4841 
L 5625 4841 
L 5625 0 
L 5003 0 
z
" transform="scale(0.015625)"/>
       </defs>
       <use xlink:href="#MicrosoftYaHei-31"/>
       <use xlink:href="#MicrosoftYaHei-36" transform="translate(58.642578 0)"/>
       <use xlink:href="#MicrosoftYaHei-51" transform="translate(117.285156 0)"/>
       <use xlink:href="#MicrosoftYaHei-41" transform="translate(197.404297 0)"/>
       <use xlink:href="#MicrosoftYaHei-4d" transform="translate(267.765625 0)"/>
      </g>
     </g>
    </g>
    <g id="xtick_2">
     <g id="line2d_2">
      <g>
       <use xlink:href="#m76ad06c304" x="295.2" y="320.4" style="stroke: #000000; stroke-width: 0.8"/>
      </g>
     </g>
     <g id="text_2">
      <!-- 64QAM -->
      <g transform="translate(276.926562 335.39375) scale(0.1 -0.1)">
       <defs>
        <path id="MicrosoftYaHei-34" d="M 2906 4841 
L 2906 1644 
L 3631 1644 
L 3631 1138 
L 2906 1138 
L 2906 0 
L 2313 0 
L 2313 1138 
L 53 1138 
L 53 1616 
Q 656 2294 1265 3178 
Q 1875 4063 2272 4841 
L 2906 4841 
z
M 741 1644 
L 2313 1644 
L 2313 3950 
Q 1988 3366 1616 2817 
Q 1244 2269 741 1644 
z
" transform="scale(0.015625)"/>
       </defs>
       <use xlink:href="#MicrosoftYaHei-36"/>
       <use xlink:href="#MicrosoftYaHei-34" transform="translate(58.642578 0)"/>
       <use xlink:href="#MicrosoftYaHei-51" transform="translate(117.285156 0)"/>
       <use xlink:href="#MicrosoftYaHei-41" transform="translate(197.404297 0)"/>
       <use xlink:href="#MicrosoftYaHei-4d" transform="translate(267.765625 0)"/>
      </g>
     </g>
    </g>
    <g id="xtick_3">
     <g id="line2d_3">
      <g>
       <use xlink:href="#m76ad06c304" x="440.135065" y="320.4" style="stroke: #000000; stroke-width: 0.8"/>
      </g>
     </g>
     <g id="text_3">
      <!-- QPSK -->
      <g transform="translate(426.940534 335.39375) scale(0.1 -0.1)">
       <defs>
        <path id="MicrosoftYaHei-50" d="M 1250 1809 
L 1250 0 
L 625 0 
L 625 4841 
L 2000 4841 
Q 2784 4841 3217 4462 
Q 3650 4084 3650 3381 
Q 3650 2669 3144 2226 
Q 2638 1784 1878 1809 
L 1250 1809 
z
M 1250 4291 
L 1250 2359 
L 1828 2359 
Q 2400 2359 2697 2617 
Q 2994 2875 2994 3356 
Q 2994 4291 1888 4291 
L 1250 4291 
z
" transform="scale(0.015625)"/>
        <path id="MicrosoftYaHei-53" d="M 400 909 
Q 622 716 994 591 
Q 1366 466 1700 466 
Q 2719 466 2719 1191 
Q 2719 1394 2609 1556 
Q 2500 1719 2309 1844 
Q 2119 1969 1594 2228 
Q 866 2591 634 2902 
Q 403 3213 403 3613 
Q 403 4216 887 4569 
Q 1372 4922 2109 4922 
Q 2831 4922 3169 4747 
L 3169 4066 
Q 2731 4369 2063 4369 
Q 1619 4369 1339 4183 
Q 1059 3997 1059 3666 
Q 1059 3372 1253 3187 
Q 1447 3003 2094 2684 
Q 2806 2344 3090 2003 
Q 3375 1663 3375 1238 
Q 3375 600 2912 259 
Q 2450 -81 1628 -81 
Q 1341 -81 958 -1 
Q 575 78 400 197 
L 400 909 
z
" transform="scale(0.015625)"/>
        <path id="MicrosoftYaHei-4b" d="M 4069 0 
L 3213 0 
L 1394 2200 
Q 1300 2316 1266 2381 
L 1250 2381 
L 1250 0 
L 625 0 
L 625 4841 
L 1250 4841 
L 1250 2563 
L 1266 2563 
Q 1319 2647 1394 2741 
L 3150 4841 
L 3922 4841 
L 1891 2519 
L 4069 0 
z
" transform="scale(0.015625)"/>
       </defs>
       <use xlink:href="#MicrosoftYaHei-51"/>
       <use xlink:href="#MicrosoftYaHei-50" transform="translate(81.494141 0)"/>
       <use xlink:href="#MicrosoftYaHei-53" transform="translate(142.675781 0)"/>
       <use xlink:href="#MicrosoftYaHei-4b" transform="translate(200.390625 0)"/>
      </g>
     </g>
    </g>
    <g id="text_4">
     <!-- modulation index (MCS) -->
     <g transform="translate(237.111719 349.873438) scale(0.1 -0.1)">
      <defs>
       <path id="MicrosoftYaHei-6d" d="M 5522 0 
L 4909 0 
L 4909 1984 
Q 4909 2547 4734 2789 
Q 4559 3031 4159 3031 
Q 3822 3031 3581 2715 
Q 3341 2400 3341 1969 
L 3341 0 
L 2728 0 
L 2728 2047 
Q 2728 3031 1969 3031 
Q 1619 3031 1389 2731 
Q 1159 2431 1159 1966 
L 1159 0 
L 547 0 
L 547 3456 
L 1159 3456 
L 1159 2909 
L 1172 2909 
Q 1541 3538 2250 3538 
Q 2597 3538 2862 3347 
Q 3128 3156 3231 2831 
Q 3616 3538 4381 3538 
Q 5522 3538 5522 2131 
L 5522 0 
z
" transform="scale(0.015625)"/>
       <path id="MicrosoftYaHei-6f" d="M 316 1691 
Q 316 2547 794 3042 
Q 1272 3538 2091 3538 
Q 2869 3538 3311 3061 
Q 3753 2584 3753 1744 
Q 3753 925 3281 422 
Q 2809 -81 2016 -81 
Q 1241 -81 778 406 
Q 316 894 316 1691 
z
M 941 1709 
Q 941 1113 1242 769 
Q 1544 425 2053 425 
Q 2578 425 2853 761 
Q 3128 1097 3128 1725 
Q 3128 2356 2853 2693 
Q 2578 3031 2053 3031 
Q 1538 3031 1239 2678 
Q 941 2325 941 1709 
z
" transform="scale(0.015625)"/>
       <path id="MicrosoftYaHei-64" d="M 3547 0 
L 2934 0 
L 2934 575 
L 2922 575 
Q 2544 -81 1747 -81 
Q 1091 -81 703 386 
Q 316 853 316 1647 
Q 316 2503 753 3020 
Q 1191 3538 1897 3538 
Q 2603 3538 2922 2988 
L 2934 2988 
L 2934 5116 
L 3547 5116 
L 3547 0 
z
M 2938 2056 
Q 2938 2472 2664 2751 
Q 2391 3031 1991 3031 
Q 1503 3031 1222 2667 
Q 941 2303 941 1675 
Q 941 1097 1211 761 
Q 1481 425 1931 425 
Q 2375 425 2656 754 
Q 2938 1084 2938 1575 
L 2938 2056 
z
" transform="scale(0.015625)"/>
       <path id="MicrosoftYaHei-75" d="M 3400 0 
L 2784 0 
L 2784 544 
L 2772 544 
Q 2425 -81 1706 -81 
Q 478 -81 478 1388 
L 478 3456 
L 1084 3456 
L 1084 1478 
Q 1084 425 1891 425 
Q 2291 425 2537 720 
Q 2784 1016 2784 1466 
L 2784 3456 
L 3400 3456 
L 3400 0 
z
" transform="scale(0.015625)"/>
       <path id="MicrosoftYaHei-6c" d="M 544 0 
L 544 5116 
L 1156 5116 
L 1156 0 
L 544 0 
z
" transform="scale(0.015625)"/>
       <path id="MicrosoftYaHei-61" d="M 628 3216 
Q 1144 3538 1819 3538 
Q 3069 3538 3069 2225 
L 3069 0 
L 2463 0 
L 2463 534 
L 2447 534 
Q 2088 -81 1388 -81 
Q 884 -81 587 191 
Q 291 463 291 925 
Q 291 1894 1438 2053 
L 2463 2197 
Q 2463 3044 1763 3044 
Q 1141 3044 628 2625 
L 628 3216 
z
M 1653 1625 
Q 1228 1569 1067 1412 
Q 906 1256 906 975 
Q 906 728 1081 572 
Q 1256 416 1544 416 
Q 1944 416 2203 697 
Q 2463 978 2463 1403 
L 2463 1734 
L 1653 1625 
z
" transform="scale(0.015625)"/>
       <path id="MicrosoftYaHei-74" d="M 2206 34 
Q 2006 -75 1666 -75 
Q 738 -75 738 953 
L 738 2950 
L 144 2950 
L 144 3456 
L 738 3456 
L 738 4288 
L 1347 4481 
L 1347 3456 
L 2206 3456 
L 2206 2950 
L 1347 2950 
L 1347 1063 
Q 1347 722 1462 575 
Q 1578 428 1847 428 
Q 2053 428 2206 544 
L 2206 34 
z
" transform="scale(0.015625)"/>
       <path id="MicrosoftYaHei-69" d="M 472 4675 
Q 472 4838 583 4948 
Q 694 5059 856 5059 
Q 1022 5059 1136 4950 
Q 1250 4841 1250 4675 
Q 1250 4513 1136 4405 
Q 1022 4297 856 4297 
Q 691 4297 581 4405 
Q 472 4513 472 4675 
z
M 544 0 
L 544 3456 
L 1156 3456 
L 1156 0 
L 544 0 
z
" transform="scale(0.015625)"/>
       <path id="MicrosoftYaHei-6e" d="M 3469 0 
L 2859 0 
L 2859 1966 
Q 2859 3031 2081 3031 
Q 1678 3031 1418 2731 
Q 1159 2431 1159 1972 
L 1159 0 
L 547 0 
L 547 3456 
L 1159 3456 
L 1159 2884 
L 1172 2884 
Q 1563 3538 2306 3538 
Q 2875 3538 3172 3173 
Q 3469 2809 3469 2113 
L 3469 0 
z
" transform="scale(0.015625)"/>
       <path id="MicrosoftYaHei-20" transform="scale(0.015625)"/>
       <path id="MicrosoftYaHei-65" d="M 3363 1572 
L 944 1572 
Q 959 1019 1246 717 
Q 1534 416 2050 416 
Q 2631 416 3116 788 
L 3116 241 
Q 2659 -81 1906 -81 
Q 1156 -81 736 394 
Q 316 869 316 1713 
Q 316 2506 777 3022 
Q 1238 3538 1922 3538 
Q 2600 3538 2981 3102 
Q 3363 2666 3363 1881 
L 3363 1572 
z
M 2750 2063 
Q 2747 2531 2528 2787 
Q 2309 3044 1913 3044 
Q 1547 3044 1280 2772 
Q 1013 2500 944 2063 
L 2750 2063 
z
" transform="scale(0.015625)"/>
       <path id="MicrosoftYaHei-78" d="M 3163 3456 
L 2006 1716 
L 3147 0 
L 2434 0 
L 1775 1100 
Q 1722 1188 1625 1369 
L 1613 1369 
Q 1609 1350 1456 1100 
L 784 0 
L 81 0 
L 1256 1697 
L 134 3456 
L 847 3456 
L 1494 2300 
Q 1553 2194 1638 2025 
L 1650 2025 
L 2491 3456 
L 3163 3456 
z
" transform="scale(0.015625)"/>
       <path id="MicrosoftYaHei-28" d="M 1531 -1100 
Q 478 100 478 1847 
Q 478 3594 1531 4841 
L 2072 4841 
Q 1016 3544 1016 1853 
Q 1016 166 2066 -1100 
L 1531 -1100 
z
" transform="scale(0.015625)"/>
       <path id="MicrosoftYaHei-43" d="M 3938 200 
Q 3403 -81 2597 -81 
Q 1556 -81 934 580 
Q 313 1241 313 2328 
Q 313 3497 1013 4209 
Q 1713 4922 2791 4922 
Q 3484 4922 3938 4725 
L 3938 4072 
Q 3419 4359 2797 4359 
Q 1988 4359 1478 3820 
Q 969 3281 969 2366 
Q 969 1497 1444 986 
Q 1919 475 2688 475 
Q 3406 475 3938 800 
L 3938 200 
z
" transform="scale(0.015625)"/>
       <path id="MicrosoftYaHei-29" d="M 78 -1100 
Q 1131 163 1131 1853 
Q 1131 3547 72 4841 
L 616 4841 
Q 1672 3603 1672 1847 
Q 1672 91 616 -1100 
L 78 -1100 
z
" transform="scale(0.015625)"/>
      </defs>
      <use xlink:href="#MicrosoftYaHei-6d"/>
      <use xlink:href="#MicrosoftYaHei-6f" transform="translate(93.701172 0)"/>
      <use xlink:href="#MicrosoftYaHei-64" transform="translate(157.275391 0)"/>
      <use xlink:href="#MicrosoftYaHei-75" transform="translate(221.240234 0)"/>
      <use xlink:href="#MicrosoftYaHei-6c" transform="translate(282.861328 0)"/>
      <use xlink:href="#MicrosoftYaHei-61" transform="translate(309.472656 0)"/>
      <use xlink:href="#MicrosoftYaHei-74" transform="translate(364.746094 0)"/>
      <use xlink:href="#MicrosoftYaHei-69" transform="translate(402.001953 0)"/>
      <use xlink:href="#MicrosoftYaHei-6f" transform="translate(428.613281 0)"/>
      <use xlink:href="#MicrosoftYaHei-6e" transform="translate(492.1875 0)"/>
      <use xlink:href="#MicrosoftYaHei-20" transform="translate(553.808594 0)"/>
      <use xlink:href="#MicrosoftYaHei-69" transform="translate(583.398438 0)"/>
      <use xlink:href="#MicrosoftYaHei-6e" transform="translate(610.009766 0)"/>
      <use xlink:href="#MicrosoftYaHei-64" transform="translate(671.630859 0)"/>
      <use xlink:href="#MicrosoftYaHei-65" transform="translate(735.595703 0)"/>
      <use xlink:href="#MicrosoftYaHei-78" transform="translate(792.333984 0)"/>
      <use xlink:href="#MicrosoftYaHei-20" transform="translate(843.017578 0)"/>
      <use xlink:href="#MicrosoftYaHei-28" transform="translate(872.607422 0)"/>
      <use xlink:href="#MicrosoftYaHei-4d" transform="translate(906.005859 0)"/>
      <use xlink:href="#MicrosoftYaHei-43" transform="translate(1003.710938 0)"/>
      <use xlink:href="#MicrosoftYaHei-53" transform="translate(1070.605469 0)"/>
      <use xlink:href="#MicrosoftYaHei-29" transform="translate(1128.320312 0)"/>
     </g>
    </g>
   </g>
   <g id="matplotlib.axis_2">
    <g id="ytick_1">
     <g id="line2d_4">
      <path d="M 72 320.4 
L 518.4 320.4 
" clip-path="url(#p5fc621a1ed)" style="fill: none; stroke: #b0b0b0; stroke-width: 0.8; stroke-linecap: square"/>
     </g>
     <g id="line2d_5">
      <defs>
       <path id="mebfd992182" d="M 0 0 
L -3.5 0 
" style="stroke: #000000; stroke-width: 0.8"/>
      </defs>
      <g>
       <use xlink:href="#mebfd992182" x="72" y="320.4" style="stroke: #000000; stroke-width: 0.8"/>
      </g>
     </g>
     <g id="text_5">
      <!-- 0 -->
      <g transform="translate(59.135937 324.396875) scale(0.1 -0.1)">
       <defs>
        <path id="MicrosoftYaHei-30" d="M 284 2325 
Q 284 3606 709 4264 
Q 1134 4922 1941 4922 
Q 3478 4922 3478 2441 
Q 3478 1216 3045 567 
Q 2613 -81 1831 -81 
Q 1094 -81 689 534 
Q 284 1150 284 2325 
z
M 909 2353 
Q 909 425 1888 425 
Q 2850 425 2850 2384 
Q 2850 4413 1906 4413 
Q 909 4413 909 2353 
z
" transform="scale(0.015625)"/>
       </defs>
       <use xlink:href="#MicrosoftYaHei-30"/>
      </g>
     </g>
    </g>
    <g id="ytick_2">
     <g id="line2d_6">
      <path d="M 72 282.414388 
L 518.4 282.414388 
" clip-path="url(#p5fc621a1ed)" style="fill: none; stroke: #b0b0b0; stroke-width: 0.8; stroke-linecap: square"/>
     </g>
     <g id="line2d_7">
      <g>
       <use xlink:href="#mebfd992182" x="72" y="282.414388" style="stroke: #000000; stroke-width: 0.8"/>
      </g>
     </g>
     <g id="text_6">
      <!-- 100 -->
      <g transform="translate(47.407812 286.411263) scale(0.1 -0.1)">
       <use xlink:href="#MicrosoftYaHei-31"/>
       <use xlink:href="#MicrosoftYaHei-30" transform="translate(58.642578 0)"/>
       <use xlink:href="#MicrosoftYaHei-30" transform="translate(117.285156 0)"/>
      </g>
     </g>
    </g>
    <g id="ytick_3">
     <g id="line2d_8">
      <path d="M 72 244.428777 
L 518.4 244.428777 
" clip-path="url(#p5fc621a1ed)" style="fill: none; stroke: #b0b0b0; stroke-width: 0.8; stroke-linecap: square"/>
     </g>
     <g id="line2d_9">
      <g>
       <use xlink:href="#mebfd992182" x="72" y="244.428777" style="stroke: #000000; stroke-width: 0.8"/>
      </g>
     </g>
     <g id="text_7">
      <!-- 200 -->
      <g transform="translate(47.407812 248.425652) scale(0.1 -0.1)">
       <defs>
        <path id="MicrosoftYaHei-32" d="M 2666 3572 
Q 2666 3963 2419 4186 
Q 2172 4409 1747 4409 
Q 1447 4409 1140 4256 
Q 834 4103 569 3819 
L 569 4413 
Q 806 4659 1107 4790 
Q 1409 4922 1816 4922 
Q 2472 4922 2872 4570 
Q 3272 4219 3272 3619 
Q 3272 3084 3026 2693 
Q 2781 2303 2188 1894 
Q 1581 1475 1376 1294 
Q 1172 1113 1090 947 
Q 1009 781 1009 544 
L 3416 544 
L 3416 0 
L 372 0 
L 372 241 
Q 372 659 486 951 
Q 600 1244 862 1520 
Q 1125 1797 1681 2184 
Q 2250 2584 2458 2886 
Q 2666 3188 2666 3572 
z
" transform="scale(0.015625)"/>
       </defs>
       <use xlink:href="#MicrosoftYaHei-32"/>
       <use xlink:href="#MicrosoftYaHei-30" transform="translate(58.642578 0)"/>
       <use xlink:href="#MicrosoftYaHei-30" transform="translate(117.285156 0)"/>
      </g>
     </g>
    </g>
    <g id="ytick_4">
     <g id="line2d_10">
      <path d="M 72 206.443165 
L 518.4 206.443165 
" clip-path="url(#p5fc621a1ed)" style="fill: none; stroke: #b0b0b0; stroke-width: 0.8; stroke-linecap: square"/>
     </g>
     <g id="line2d_11">
      <g>
       <use xlink:href="#mebfd992182" x="72" y="206.443165" style="stroke: #000000; stroke-width: 0.8"/>
      </g>
     </g>
     <g id="text_8">
      <!-- 300 -->
      <g transform="translate(47.407812 210.44004) scale(0.1 -0.1)">
       <defs>
        <path id="MicrosoftYaHei-33" d="M 447 809 
Q 944 425 1569 425 
Q 2069 425 2361 670 
Q 2653 916 2653 1328 
Q 2653 2247 1338 2247 
L 934 2247 
L 934 2753 
L 1319 2753 
Q 2484 2753 2484 3616 
Q 2484 4413 1594 4413 
Q 1084 4413 634 4069 
L 634 4647 
Q 1109 4922 1744 4922 
Q 2363 4922 2738 4598 
Q 3113 4275 3113 3759 
Q 3113 2809 2144 2538 
L 2144 2525 
Q 2669 2469 2973 2155 
Q 3278 1841 3278 1372 
Q 3278 719 2808 319 
Q 2338 -81 1556 -81 
Q 869 -81 447 175 
L 447 809 
z
" transform="scale(0.015625)"/>
       </defs>
       <use xlink:href="#MicrosoftYaHei-33"/>
       <use xlink:href="#MicrosoftYaHei-30" transform="translate(58.642578 0)"/>
       <use xlink:href="#MicrosoftYaHei-30" transform="translate(117.285156 0)"/>
      </g>
     </g>
    </g>
    <g id="ytick_5">
     <g id="line2d_12">
      <path d="M 72 168.457554 
L 518.4 168.457554 
" clip-path="url(#p5fc621a1ed)" style="fill: none; stroke: #b0b0b0; stroke-width: 0.8; stroke-linecap: square"/>
     </g>
     <g id="line2d_13">
      <g>
       <use xlink:href="#mebfd992182" x="72" y="168.457554" style="stroke: #000000; stroke-width: 0.8"/>
      </g>
     </g>
     <g id="text_9">
      <!-- 400 -->
      <g transform="translate(47.407812 172.454429) scale(0.1 -0.1)">
       <use xlink:href="#MicrosoftYaHei-34"/>
       <use xlink:href="#MicrosoftYaHei-30" transform="translate(58.642578 0)"/>
       <use xlink:href="#MicrosoftYaHei-30" transform="translate(117.285156 0)"/>
      </g>
     </g>
    </g>
    <g id="ytick_6">
     <g id="line2d_14">
      <path d="M 72 130.471942 
L 518.4 130.471942 
" clip-path="url(#p5fc621a1ed)" style="fill: none; stroke: #b0b0b0; stroke-width: 0.8; stroke-linecap: square"/>
     </g>
     <g id="line2d_15">
      <g>
       <use xlink:href="#mebfd992182" x="72" y="130.471942" style="stroke: #000000; stroke-width: 0.8"/>
      </g>
     </g>
     <g id="text_10">
      <!-- 500 -->
      <g transform="translate(47.407812 134.468817) scale(0.1 -0.1)">
       <defs>
        <path id="MicrosoftYaHei-35" d="M 3294 1494 
Q 3294 784 2823 350 
Q 2353 -84 1559 -84 
Q 878 -84 544 119 
L 544 744 
Q 1034 425 1544 425 
Q 2050 425 2361 704 
Q 2672 984 2672 1447 
Q 2672 1909 2348 2167 
Q 2025 2425 1434 2425 
Q 978 2425 613 2384 
L 791 4841 
L 3053 4841 
L 3053 4303 
L 1306 4303 
L 1206 2931 
L 1647 2950 
Q 2416 2950 2855 2567 
Q 3294 2184 3294 1494 
z
" transform="scale(0.015625)"/>
       </defs>
       <use xlink:href="#MicrosoftYaHei-35"/>
       <use xlink:href="#MicrosoftYaHei-30" transform="translate(58.642578 0)"/>
       <use xlink:href="#MicrosoftYaHei-30" transform="translate(117.285156 0)"/>
      </g>
     </g>
    </g>
    <g id="ytick_7">
     <g id="line2d_16">
      <path d="M 72 92.486331 
L 518.4 92.486331 
" clip-path="url(#p5fc621a1ed)" style="fill: none; stroke: #b0b0b0; stroke-width: 0.8; stroke-linecap: square"/>
     </g>
     <g id="line2d_17">
      <g>
       <use xlink:href="#mebfd992182" x="72" y="92.486331" style="stroke: #000000; stroke-width: 0.8"/>
      </g>
     </g>
     <g id="text_11">
      <!-- 600 -->
      <g transform="translate(47.407812 96.483206) scale(0.1 -0.1)">
       <use xlink:href="#MicrosoftYaHei-36"/>
       <use xlink:href="#MicrosoftYaHei-30" transform="translate(58.642578 0)"/>
       <use xlink:href="#MicrosoftYaHei-30" transform="translate(117.285156 0)"/>
      </g>
     </g>
    </g>
    <g id="ytick_8">
     <g id="line2d_18">
      <path d="M 72 54.500719 
L 518.4 54.500719 
" clip-path="url(#p5fc621a1ed)" style="fill: none; stroke: #b0b0b0; stroke-width: 0.8; stroke-linecap: square"/>
     </g>
     <g id="line2d_19">
      <g>
       <use xlink:href="#mebfd992182" x="72" y="54.500719" style="stroke: #000000; stroke-width: 0.8"/>
      </g>
     </g>
     <g id="text_12">
      <!-- 700 -->
      <g transform="translate(47.407812 58.497594) scale(0.1 -0.1)">
       <defs>
        <path id="MicrosoftYaHei-37" d="M 3422 4463 
Q 2659 3131 2223 1998 
Q 1788 866 1684 0 
L 1047 0 
Q 1163 853 1594 1947 
Q 2025 3041 2747 4300 
L 347 4300 
L 347 4841 
L 3422 4841 
L 3422 4463 
z
" transform="scale(0.015625)"/>
       </defs>
       <use xlink:href="#MicrosoftYaHei-37"/>
       <use xlink:href="#MicrosoftYaHei-30" transform="translate(58.642578 0)"/>
       <use xlink:href="#MicrosoftYaHei-30" transform="translate(117.285156 0)"/>
      </g>
     </g>
    </g>
    <g id="text_13">
     <!-- number of UEs -->
     <g transform="translate(40.921875 217.15625) rotate(-90) scale(0.1 -0.1)">
      <defs>
       <path id="MicrosoftYaHei-62" d="M 1159 488 
L 1159 0 
L 547 0 
L 547 5116 
L 1159 5116 
L 1159 2859 
L 1172 2859 
Q 1578 3538 2359 3538 
Q 3009 3538 3392 3080 
Q 3775 2622 3775 1828 
Q 3775 953 3345 436 
Q 2916 -81 2200 -81 
Q 1525 -81 1172 488 
L 1159 488 
z
M 1156 1422 
Q 1156 1003 1428 714 
Q 1700 425 2109 425 
Q 2597 425 2872 800 
Q 3147 1175 3147 1838 
Q 3147 2384 2890 2707 
Q 2634 3031 2191 3031 
Q 1741 3031 1448 2709 
Q 1156 2388 1156 1891 
L 1156 1422 
z
" transform="scale(0.015625)"/>
       <path id="MicrosoftYaHei-72" d="M 2400 2850 
Q 2247 2959 1978 2959 
Q 1622 2959 1390 2626 
Q 1159 2294 1159 1750 
L 1159 0 
L 547 0 
L 547 3456 
L 1159 3456 
L 1159 2753 
L 1172 2753 
Q 1434 3516 2078 3516 
Q 2288 3516 2400 3469 
L 2400 2850 
z
" transform="scale(0.015625)"/>
       <path id="MicrosoftYaHei-66" d="M 2319 4594 
Q 2147 4684 1947 4684 
Q 1372 4684 1372 3972 
L 1372 3456 
L 2181 3456 
L 2181 2950 
L 1372 2950 
L 1372 0 
L 766 0 
L 766 2950 
L 175 2950 
L 175 3456 
L 766 3456 
L 766 4000 
Q 766 4556 1086 4873 
Q 1406 5191 1900 5191 
Q 2163 5191 2319 5131 
L 2319 4594 
z
" transform="scale(0.015625)"/>
       <path id="MicrosoftYaHei-55" d="M 4213 1972 
Q 4213 -81 2350 -81 
Q 566 -81 566 1900 
L 566 4841 
L 1191 4841 
L 1191 1928 
Q 1191 475 2409 475 
Q 3588 475 3588 1881 
L 3588 4841 
L 4213 4841 
L 4213 1972 
z
" transform="scale(0.015625)"/>
       <path id="MicrosoftYaHei-45" d="M 3228 0 
L 625 0 
L 625 4841 
L 3119 4841 
L 3119 4284 
L 1250 4284 
L 1250 2734 
L 2981 2734 
L 2981 2181 
L 1250 2181 
L 1250 553 
L 3228 553 
L 3228 0 
z
" transform="scale(0.015625)"/>
       <path id="MicrosoftYaHei-73" d="M 353 747 
Q 816 413 1350 413 
Q 2066 413 2066 881 
Q 2066 1081 1909 1211 
Q 1753 1341 1275 1519 
Q 700 1750 528 1976 
Q 356 2203 356 2525 
Q 356 2984 745 3261 
Q 1134 3538 1703 3538 
Q 2144 3538 2522 3384 
L 2522 2794 
Q 2134 3044 1644 3044 
Q 1350 3044 1165 2916 
Q 981 2788 981 2578 
Q 981 2372 1114 2256 
Q 1247 2141 1703 1959 
Q 2281 1744 2484 1512 
Q 2688 1281 2688 941 
Q 2688 466 2298 192 
Q 1909 -81 1291 -81 
Q 753 -81 353 122 
L 353 747 
z
" transform="scale(0.015625)"/>
      </defs>
      <use xlink:href="#MicrosoftYaHei-6e"/>
      <use xlink:href="#MicrosoftYaHei-75" transform="translate(61.621094 0)"/>
      <use xlink:href="#MicrosoftYaHei-6d" transform="translate(123.242188 0)"/>
      <use xlink:href="#MicrosoftYaHei-62" transform="translate(216.943359 0)"/>
      <use xlink:href="#MicrosoftYaHei-65" transform="translate(280.810547 0)"/>
      <use xlink:href="#MicrosoftYaHei-72" transform="translate(337.548828 0)"/>
      <use xlink:href="#MicrosoftYaHei-20" transform="translate(375.732422 0)"/>
      <use xlink:href="#MicrosoftYaHei-6f" transform="translate(405.322266 0)"/>
      <use xlink:href="#MicrosoftYaHei-66" transform="translate(466.896484 0)"/>
      <use xlink:href="#MicrosoftYaHei-20" transform="translate(501.564453 0)"/>
      <use xlink:href="#MicrosoftYaHei-55" transform="translate(531.154297 0)"/>
      <use xlink:href="#MicrosoftYaHei-45" transform="translate(605.8125 0)"/>
      <use xlink:href="#MicrosoftYaHei-73" transform="translate(660.792969 0)"/>
     </g>
    </g>
   </g>
   <g id="patch_6">
    <path d="M 72 320.4 
L 72 43.2 
" style="fill: none; stroke: #000000; stroke-width: 0.8; stroke-linejoin: miter; stroke-linecap: square"/>
   </g>
   <g id="patch_7">
    <path d="M 518.4 320.4 
L 518.4 43.2 
" style="fill: none; stroke: #000000; stroke-width: 0.8; stroke-linejoin: miter; stroke-linecap: square"/>
   </g>
   <g id="patch_8">
    <path d="M 72 320.4 
L 518.4 320.4 
" style="fill: none; stroke: #000000; stroke-width: 0.8; stroke-linejoin: miter; stroke-linecap: square"/>
   </g>
   <g id="patch_9">
    <path d="M 72 43.2 
L 518.4 43.2 
" style="fill: none; stroke: #000000; stroke-width: 0.8; stroke-linejoin: miter; stroke-linecap: square"/>
   </g>
   <g id="text_14">
    <!-- MCS choice statistics -->
    <g transform="translate(235.22625 37.2) scale(0.12 -0.12)">
     <defs>
      <path id="MicrosoftYaHei-63" d="M 2934 156 
Q 2538 -81 1978 -81 
Q 1228 -81 772 400 
Q 316 881 316 1647 
Q 316 2497 808 3017 
Q 1300 3538 2125 3538 
Q 2600 3538 2938 3369 
L 2938 2763 
Q 2572 3031 2125 3031 
Q 1600 3031 1270 2667 
Q 941 2303 941 1697 
Q 941 1100 1252 762 
Q 1563 425 2091 425 
Q 2538 425 2934 719 
L 2934 156 
z
" transform="scale(0.015625)"/>
      <path id="MicrosoftYaHei-68" d="M 3466 0 
L 2856 0 
L 2856 1988 
Q 2856 3031 2081 3031 
Q 1684 3031 1421 2726 
Q 1159 2422 1159 1959 
L 1159 0 
L 547 0 
L 547 5116 
L 1159 5116 
L 1159 2888 
L 1172 2888 
Q 1569 3538 2300 3538 
Q 3466 3538 3466 2128 
L 3466 0 
z
" transform="scale(0.015625)"/>
     </defs>
     <use xlink:href="#MicrosoftYaHei-4d"/>
     <use xlink:href="#MicrosoftYaHei-43" transform="translate(97.705078 0)"/>
     <use xlink:href="#MicrosoftYaHei-53" transform="translate(164.599609 0)"/>
     <use xlink:href="#MicrosoftYaHei-20" transform="translate(222.314453 0)"/>
     <use xlink:href="#MicrosoftYaHei-63" transform="translate(251.904297 0)"/>
     <use xlink:href="#MicrosoftYaHei-68" transform="translate(302.050781 0)"/>
     <use xlink:href="#MicrosoftYaHei-6f" transform="translate(363.623047 0)"/>
     <use xlink:href="#MicrosoftYaHei-69" transform="translate(427.197266 0)"/>
     <use xlink:href="#MicrosoftYaHei-63" transform="translate(453.808594 0)"/>
     <use xlink:href="#MicrosoftYaHei-65" transform="translate(503.955078 0)"/>
     <use xlink:href="#MicrosoftYaHei-20" transform="translate(560.693359 0)"/>
     <use xlink:href="#MicrosoftYaHei-73" transform="translate(590.283203 0)"/>
     <use xlink:href="#MicrosoftYaHei-74" transform="translate(636.572266 0)"/>
     <use xlink:href="#MicrosoftYaHei-61" transform="translate(673.828125 0)"/>
     <use xlink:href="#MicrosoftYaHei-74" transform="translate(729.101562 0)"/>
     <use xlink:href="#MicrosoftYaHei-69" transform="translate(766.357422 0)"/>
     <use xlink:href="#MicrosoftYaHei-73" transform="translate(792.96875 0)"/>
     <use xlink:href="#MicrosoftYaHei-74" transform="translate(839.257812 0)"/>
     <use xlink:href="#MicrosoftYaHei-69" transform="translate(876.513672 0)"/>
     <use xlink:href="#MicrosoftYaHei-63" transform="translate(903.125 0)"/>
     <use xlink:href="#MicrosoftYaHei-73" transform="translate(953.271484 0)"/>
    </g>
   </g>
  </g>
 </g>
 <defs>
  <clipPath id="p5fc621a1ed">
   <rect x="72" y="43.2" width="446.4" height="277.2"/>
  </clipPath>
 </defs>
</svg>
