<?xml version="1.0" encoding="utf-8" standalone="no"?>
<!DOCTYPE svg PUBLIC "-//W3C//DTD SVG 1.1//EN"
  "http://www.w3.org/Graphics/SVG/1.1/DTD/svg11.dtd">
<svg xmlns:xlink="http://www.w3.org/1999/xlink" width="864pt" height="576pt" viewBox="0 0 864 576" xmlns="http://www.w3.org/2000/svg" version="1.1">
 <metadata>
  <rdf:RDF xmlns:dc="http://purl.org/dc/elements/1.1/" xmlns:cc="http://creativecommons.org/ns#" xmlns:rdf="http://www.w3.org/1999/02/22-rdf-syntax-ns#">
   <cc:Work>
    <dc:type rdf:resource="http://purl.org/dc/dcmitype/StillImage"/>
    <dc:date>2025-03-28T11:46:11.604612</dc:date>
    <dc:format>image/svg+xml</dc:format>
    <dc:creator>
     <cc:Agent>
      <dc:title>Matplotlib v3.10.0, https://matplotlib.org/</dc:title>
     </cc:Agent>
    </dc:creator>
   </cc:Work>
  </rdf:RDF>
 </metadata>
 <defs>
  <style type="text/css">*{stroke-linejoin: round; stroke-linecap: butt}</style>
 </defs>
 <g id="figure_1">
  <g id="patch_1">
   <path d="M 0 576 
L 864 576 
L 864 0 
L 0 0 
z
" style="fill: #ffffff"/>
  </g>
  <g id="axes_1">
   <g id="patch_2">
    <path d="M 53.3 248.56 
L 426.6 248.56 
L 426.6 26.88 
L 53.3 26.88 
z
" style="fill: #ffffff"/>
   </g>
   <g id="matplotlib.axis_1">
    <g id="xtick_1">
     <g id="line2d_1">
      <defs>
       <path id="me7947369ea" d="M 0 0 
L 0 3.5 
" style="stroke: #000000; stroke-width: 0.8"/>
      </defs>
      <g>
       <use xlink:href="#me7947369ea" x="70.268182" y="248.56" style="stroke: #000000; stroke-width: 0.8"/>
      </g>
     </g>
     <g id="text_1">
      <!-- 0 -->
      <g transform="translate(67.336151 263.55375) scale(0.1 -0.1)">
       <defs>
        <path id="MicrosoftYaHei-30" d="M 284 2325 
Q 284 3606 709 4264 
Q 1134 4922 1941 4922 
Q 3478 4922 3478 2441 
Q 3478 1216 3045 567 
Q 2613 -81 1831 -81 
Q 1094 -81 689 534 
Q 284 1150 284 2325 
z
M 909 2353 
Q 909 425 1888 425 
Q 2850 425 2850 2384 
Q 2850 4413 1906 4413 
Q 909 4413 909 2353 
z
" transform="scale(0.015625)"/>
       </defs>
       <use xlink:href="#MicrosoftYaHei-30"/>
      </g>
     </g>
    </g>
    <g id="xtick_2">
     <g id="line2d_2">
      <g>
       <use xlink:href="#me7947369ea" x="138.140909" y="248.56" style="stroke: #000000; stroke-width: 0.8"/>
      </g>
     </g>
     <g id="text_2">
      <!-- 20 -->
      <g transform="translate(132.276847 263.55375) scale(0.1 -0.1)">
       <defs>
        <path id="MicrosoftYaHei-32" d="M 2666 3572 
Q 2666 3963 2419 4186 
Q 2172 4409 1747 4409 
Q 1447 4409 1140 4256 
Q 834 4103 569 3819 
L 569 4413 
Q 806 4659 1107 4790 
Q 1409 4922 1816 4922 
Q 2472 4922 2872 4570 
Q 3272 4219 3272 3619 
Q 3272 3084 3026 2693 
Q 2781 2303 2188 1894 
Q 1581 1475 1376 1294 
Q 1172 1113 1090 947 
Q 1009 781 1009 544 
L 3416 544 
L 3416 0 
L 372 0 
L 372 241 
Q 372 659 486 951 
Q 600 1244 862 1520 
Q 1125 1797 1681 2184 
Q 2250 2584 2458 2886 
Q 2666 3188 2666 3572 
z
" transform="scale(0.015625)"/>
       </defs>
       <use xlink:href="#MicrosoftYaHei-32"/>
       <use xlink:href="#MicrosoftYaHei-30" transform="translate(58.642578 0)"/>
      </g>
     </g>
    </g>
    <g id="xtick_3">
     <g id="line2d_3">
      <g>
       <use xlink:href="#me7947369ea" x="206.013636" y="248.56" style="stroke: #000000; stroke-width: 0.8"/>
      </g>
     </g>
     <g id="text_3">
      <!-- 40 -->
      <g transform="translate(200.149574 263.55375) scale(0.1 -0.1)">
       <defs>
        <path id="MicrosoftYaHei-34" d="M 2906 4841 
L 2906 1644 
L 3631 1644 
L 3631 1138 
L 2906 1138 
L 2906 0 
L 2313 0 
L 2313 1138 
L 53 1138 
L 53 1616 
Q 656 2294 1265 3178 
Q 1875 4063 2272 4841 
L 2906 4841 
z
M 741 1644 
L 2313 1644 
L 2313 3950 
Q 1988 3366 1616 2817 
Q 1244 2269 741 1644 
z
" transform="scale(0.015625)"/>
       </defs>
       <use xlink:href="#MicrosoftYaHei-34"/>
       <use xlink:href="#MicrosoftYaHei-30" transform="translate(58.642578 0)"/>
      </g>
     </g>
    </g>
    <g id="xtick_4">
     <g id="line2d_4">
      <g>
       <use xlink:href="#me7947369ea" x="273.886364" y="248.56" style="stroke: #000000; stroke-width: 0.8"/>
      </g>
     </g>
     <g id="text_4">
      <!-- 60 -->
      <g transform="translate(268.022301 263.55375) scale(0.1 -0.1)">
       <defs>
        <path id="MicrosoftYaHei-36" d="M 3181 4219 
Q 2803 4413 2391 4413 
Q 1763 4413 1381 3866 
Q 1000 3319 994 2372 
L 1009 2372 
Q 1353 3038 2106 3038 
Q 2734 3038 3109 2628 
Q 3484 2219 3484 1541 
Q 3484 831 3051 375 
Q 2619 -81 1947 -81 
Q 1209 -81 789 495 
Q 369 1072 369 2131 
Q 369 3413 920 4167 
Q 1472 4922 2372 4922 
Q 2888 4922 3181 4781 
L 3181 4219 
z
M 1031 1584 
Q 1031 1106 1286 765 
Q 1541 425 1963 425 
Q 2363 425 2613 719 
Q 2863 1013 2863 1475 
Q 2863 1975 2627 2253 
Q 2391 2531 1956 2531 
Q 1544 2531 1287 2250 
Q 1031 1969 1031 1584 
z
" transform="scale(0.015625)"/>
       </defs>
       <use xlink:href="#MicrosoftYaHei-36"/>
       <use xlink:href="#MicrosoftYaHei-30" transform="translate(58.642578 0)"/>
      </g>
     </g>
    </g>
    <g id="xtick_5">
     <g id="line2d_5">
      <g>
       <use xlink:href="#me7947369ea" x="341.759091" y="248.56" style="stroke: #000000; stroke-width: 0.8"/>
      </g>
     </g>
     <g id="text_5">
      <!-- 80 -->
      <g transform="translate(335.895028 263.55375) scale(0.1 -0.1)">
       <defs>
        <path id="MicrosoftYaHei-38" d="M 306 1350 
Q 306 1769 556 2122 
Q 806 2475 1200 2625 
Q 884 2803 700 3081 
Q 516 3359 516 3684 
Q 516 4028 692 4312 
Q 869 4597 1183 4759 
Q 1497 4922 1875 4922 
Q 2256 4922 2572 4761 
Q 2888 4600 3063 4315 
Q 3238 4031 3238 3684 
Q 3238 3366 3058 3086 
Q 2878 2806 2559 2625 
Q 2953 2472 3200 2119 
Q 3447 1766 3447 1350 
Q 3447 938 3250 611 
Q 3053 284 2690 103 
Q 2328 -78 1875 -78 
Q 1425 -78 1065 103 
Q 706 284 506 612 
Q 306 941 306 1350 
z
M 906 1378 
Q 906 947 1172 687 
Q 1438 428 1878 428 
Q 2309 428 2582 692 
Q 2856 956 2856 1378 
Q 2856 1778 2579 2051 
Q 2303 2325 1878 2325 
Q 1456 2325 1181 2058 
Q 906 1791 906 1378 
z
M 1081 3634 
Q 1081 3309 1312 3076 
Q 1544 2844 1878 2844 
Q 2206 2844 2445 3078 
Q 2684 3313 2684 3634 
Q 2684 3963 2454 4191 
Q 2225 4419 1878 4419 
Q 1534 4419 1307 4195 
Q 1081 3972 1081 3634 
z
" transform="scale(0.015625)"/>
       </defs>
       <use xlink:href="#MicrosoftYaHei-38"/>
       <use xlink:href="#MicrosoftYaHei-30" transform="translate(58.642578 0)"/>
      </g>
     </g>
    </g>
    <g id="xtick_6">
     <g id="line2d_6">
      <g>
       <use xlink:href="#me7947369ea" x="409.631818" y="248.56" style="stroke: #000000; stroke-width: 0.8"/>
      </g>
     </g>
     <g id="text_6">
      <!-- 100 -->
      <g transform="translate(400.835724 263.55375) scale(0.1 -0.1)">
       <defs>
        <path id="MicrosoftYaHei-31" d="M 1781 0 
L 1781 4141 
Q 1638 3997 1295 3819 
Q 953 3641 663 3569 
L 663 4169 
Q 1047 4275 1484 4508 
Q 1922 4741 2156 4947 
L 2388 4947 
L 2388 0 
L 1781 0 
z
" transform="scale(0.015625)"/>
       </defs>
       <use xlink:href="#MicrosoftYaHei-31"/>
       <use xlink:href="#MicrosoftYaHei-30" transform="translate(58.642578 0)"/>
       <use xlink:href="#MicrosoftYaHei-30" transform="translate(117.285156 0)"/>
      </g>
     </g>
    </g>
    <g id="text_7">
     <!-- Time -->
     <g transform="translate(228.23125 278.033437) scale(0.1 -0.1)">
      <defs>
       <path id="MicrosoftYaHei-54" d="M 3550 4284 
L 2153 4284 
L 2153 0 
L 1525 0 
L 1525 4284 
L 134 4284 
L 134 4841 
L 3550 4841 
L 3550 4284 
z
" transform="scale(0.015625)"/>
       <path id="MicrosoftYaHei-69" d="M 472 4675 
Q 472 4838 583 4948 
Q 694 5059 856 5059 
Q 1022 5059 1136 4950 
Q 1250 4841 1250 4675 
Q 1250 4513 1136 4405 
Q 1022 4297 856 4297 
Q 691 4297 581 4405 
Q 472 4513 472 4675 
z
M 544 0 
L 544 3456 
L 1156 3456 
L 1156 0 
L 544 0 
z
" transform="scale(0.015625)"/>
       <path id="MicrosoftYaHei-6d" d="M 5522 0 
L 4909 0 
L 4909 1984 
Q 4909 2547 4734 2789 
Q 4559 3031 4159 3031 
Q 3822 3031 3581 2715 
Q 3341 2400 3341 1969 
L 3341 0 
L 2728 0 
L 2728 2047 
Q 2728 3031 1969 3031 
Q 1619 3031 1389 2731 
Q 1159 2431 1159 1966 
L 1159 0 
L 547 0 
L 547 3456 
L 1159 3456 
L 1159 2909 
L 1172 2909 
Q 1541 3538 2250 3538 
Q 2597 3538 2862 3347 
Q 3128 3156 3231 2831 
Q 3616 3538 4381 3538 
Q 5522 3538 5522 2131 
L 5522 0 
z
" transform="scale(0.015625)"/>
       <path id="MicrosoftYaHei-65" d="M 3363 1572 
L 944 1572 
Q 959 1019 1246 717 
Q 1534 416 2050 416 
Q 2631 416 3116 788 
L 3116 241 
Q 2659 -81 1906 -81 
Q 1156 -81 736 394 
Q 316 869 316 1713 
Q 316 2506 777 3022 
Q 1238 3538 1922 3538 
Q 2600 3538 2981 3102 
Q 3363 2666 3363 1881 
L 3363 1572 
z
M 2750 2063 
Q 2747 2531 2528 2787 
Q 2309 3044 1913 3044 
Q 1547 3044 1280 2772 
Q 1013 2500 944 2063 
L 2750 2063 
z
" transform="scale(0.015625)"/>
      </defs>
      <use xlink:href="#MicrosoftYaHei-54"/>
      <use xlink:href="#MicrosoftYaHei-69" transform="translate(57.324219 0)"/>
      <use xlink:href="#MicrosoftYaHei-6d" transform="translate(83.935547 0)"/>
      <use xlink:href="#MicrosoftYaHei-65" transform="translate(177.636719 0)"/>
     </g>
    </g>
   </g>
   <g id="matplotlib.axis_2">
    <g id="ytick_1">
     <g id="line2d_7">
      <defs>
       <path id="md3499f836f" d="M 0 0 
L -3.5 0 
" style="stroke: #000000; stroke-width: 0.8"/>
      </defs>
      <g>
       <use xlink:href="#md3499f836f" x="53.3" y="245.638451" style="stroke: #000000; stroke-width: 0.8"/>
      </g>
     </g>
     <g id="text_8">
      <!-- 7.5 -->
      <g transform="translate(32.164062 249.635326) scale(0.1 -0.1)">
       <defs>
        <path id="MicrosoftYaHei-37" d="M 3422 4463 
Q 2659 3131 2223 1998 
Q 1788 866 1684 0 
L 1047 0 
Q 1163 853 1594 1947 
Q 2025 3041 2747 4300 
L 347 4300 
L 347 4841 
L 3422 4841 
L 3422 4463 
z
" transform="scale(0.015625)"/>
        <path id="MicrosoftYaHei-2e" d="M 372 322 
Q 372 491 487 606 
Q 603 722 775 722 
Q 950 722 1065 605 
Q 1181 488 1181 322 
Q 1181 159 1065 42 
Q 950 -75 772 -75 
Q 600 -75 486 42 
Q 372 159 372 322 
z
" transform="scale(0.015625)"/>
        <path id="MicrosoftYaHei-35" d="M 3294 1494 
Q 3294 784 2823 350 
Q 2353 -84 1559 -84 
Q 878 -84 544 119 
L 544 744 
Q 1034 425 1544 425 
Q 2050 425 2361 704 
Q 2672 984 2672 1447 
Q 2672 1909 2348 2167 
Q 2025 2425 1434 2425 
Q 978 2425 613 2384 
L 791 4841 
L 3053 4841 
L 3053 4303 
L 1306 4303 
L 1206 2931 
L 1647 2950 
Q 2416 2950 2855 2567 
Q 3294 2184 3294 1494 
z
" transform="scale(0.015625)"/>
       </defs>
       <use xlink:href="#MicrosoftYaHei-37"/>
       <use xlink:href="#MicrosoftYaHei-2e" transform="translate(58.642578 0)"/>
       <use xlink:href="#MicrosoftYaHei-35" transform="translate(82.714844 0)"/>
      </g>
     </g>
    </g>
    <g id="ytick_2">
     <g id="line2d_8">
      <g>
       <use xlink:href="#md3499f836f" x="53.3" y="215.826724" style="stroke: #000000; stroke-width: 0.8"/>
      </g>
     </g>
     <g id="text_9">
      <!-- 10.0 -->
      <g transform="translate(26.3 219.823599) scale(0.1 -0.1)">
       <use xlink:href="#MicrosoftYaHei-31"/>
       <use xlink:href="#MicrosoftYaHei-30" transform="translate(58.642578 0)"/>
       <use xlink:href="#MicrosoftYaHei-2e" transform="translate(117.285156 0)"/>
       <use xlink:href="#MicrosoftYaHei-30" transform="translate(141.357422 0)"/>
      </g>
     </g>
    </g>
    <g id="ytick_3">
     <g id="line2d_9">
      <g>
       <use xlink:href="#md3499f836f" x="53.3" y="186.014997" style="stroke: #000000; stroke-width: 0.8"/>
      </g>
     </g>
     <g id="text_10">
      <!-- 12.5 -->
      <g transform="translate(26.3 190.011872) scale(0.1 -0.1)">
       <use xlink:href="#MicrosoftYaHei-31"/>
       <use xlink:href="#MicrosoftYaHei-32" transform="translate(58.642578 0)"/>
       <use xlink:href="#MicrosoftYaHei-2e" transform="translate(117.285156 0)"/>
       <use xlink:href="#MicrosoftYaHei-35" transform="translate(141.357422 0)"/>
      </g>
     </g>
    </g>
    <g id="ytick_4">
     <g id="line2d_10">
      <g>
       <use xlink:href="#md3499f836f" x="53.3" y="156.203271" style="stroke: #000000; stroke-width: 0.8"/>
      </g>
     </g>
     <g id="text_11">
      <!-- 15.0 -->
      <g transform="translate(26.3 160.200146) scale(0.1 -0.1)">
       <use xlink:href="#MicrosoftYaHei-31"/>
       <use xlink:href="#MicrosoftYaHei-35" transform="translate(58.642578 0)"/>
       <use xlink:href="#MicrosoftYaHei-2e" transform="translate(117.285156 0)"/>
       <use xlink:href="#MicrosoftYaHei-30" transform="translate(141.357422 0)"/>
      </g>
     </g>
    </g>
    <g id="ytick_5">
     <g id="line2d_11">
      <g>
       <use xlink:href="#md3499f836f" x="53.3" y="126.391544" style="stroke: #000000; stroke-width: 0.8"/>
      </g>
     </g>
     <g id="text_12">
      <!-- 17.5 -->
      <g transform="translate(26.3 130.388419) scale(0.1 -0.1)">
       <use xlink:href="#MicrosoftYaHei-31"/>
       <use xlink:href="#MicrosoftYaHei-37" transform="translate(58.642578 0)"/>
       <use xlink:href="#MicrosoftYaHei-2e" transform="translate(117.285156 0)"/>
       <use xlink:href="#MicrosoftYaHei-35" transform="translate(141.357422 0)"/>
      </g>
     </g>
    </g>
    <g id="ytick_6">
     <g id="line2d_12">
      <g>
       <use xlink:href="#md3499f836f" x="53.3" y="96.579817" style="stroke: #000000; stroke-width: 0.8"/>
      </g>
     </g>
     <g id="text_13">
      <!-- 20.0 -->
      <g transform="translate(26.3 100.576692) scale(0.1 -0.1)">
       <use xlink:href="#MicrosoftYaHei-32"/>
       <use xlink:href="#MicrosoftYaHei-30" transform="translate(58.642578 0)"/>
       <use xlink:href="#MicrosoftYaHei-2e" transform="translate(117.285156 0)"/>
       <use xlink:href="#MicrosoftYaHei-30" transform="translate(141.357422 0)"/>
      </g>
     </g>
    </g>
    <g id="ytick_7">
     <g id="line2d_13">
      <g>
       <use xlink:href="#md3499f836f" x="53.3" y="66.76809" style="stroke: #000000; stroke-width: 0.8"/>
      </g>
     </g>
     <g id="text_14">
      <!-- 22.5 -->
      <g transform="translate(26.3 70.764965) scale(0.1 -0.1)">
       <use xlink:href="#MicrosoftYaHei-32"/>
       <use xlink:href="#MicrosoftYaHei-32" transform="translate(58.642578 0)"/>
       <use xlink:href="#MicrosoftYaHei-2e" transform="translate(117.285156 0)"/>
       <use xlink:href="#MicrosoftYaHei-35" transform="translate(141.357422 0)"/>
      </g>
     </g>
    </g>
    <g id="ytick_8">
     <g id="line2d_14">
      <g>
       <use xlink:href="#md3499f836f" x="53.3" y="36.956364" style="stroke: #000000; stroke-width: 0.8"/>
      </g>
     </g>
     <g id="text_15">
      <!-- 25.0 -->
      <g transform="translate(26.3 40.953239) scale(0.1 -0.1)">
       <use xlink:href="#MicrosoftYaHei-32"/>
       <use xlink:href="#MicrosoftYaHei-35" transform="translate(58.642578 0)"/>
       <use xlink:href="#MicrosoftYaHei-2e" transform="translate(117.285156 0)"/>
       <use xlink:href="#MicrosoftYaHei-30" transform="translate(141.357422 0)"/>
      </g>
     </g>
    </g>
    <g id="text_16">
     <!-- SNR (dB) -->
     <g transform="translate(19.814062 159.091094) rotate(-90) scale(0.1 -0.1)">
      <defs>
       <path id="MicrosoftYaHei-53" d="M 400 909 
Q 622 716 994 591 
Q 1366 466 1700 466 
Q 2719 466 2719 1191 
Q 2719 1394 2609 1556 
Q 2500 1719 2309 1844 
Q 2119 1969 1594 2228 
Q 866 2591 634 2902 
Q 403 3213 403 3613 
Q 403 4216 887 4569 
Q 1372 4922 2109 4922 
Q 2831 4922 3169 4747 
L 3169 4066 
Q 2731 4369 2063 4369 
Q 1619 4369 1339 4183 
Q 1059 3997 1059 3666 
Q 1059 3372 1253 3187 
Q 1447 3003 2094 2684 
Q 2806 2344 3090 2003 
Q 3375 1663 3375 1238 
Q 3375 600 2912 259 
Q 2450 -81 1628 -81 
Q 1341 -81 958 -1 
Q 575 78 400 197 
L 400 909 
z
" transform="scale(0.015625)"/>
       <path id="MicrosoftYaHei-4e" d="M 4578 0 
L 3838 0 
L 1403 3766 
Q 1300 3925 1238 4081 
L 1219 4081 
Q 1244 3919 1244 3403 
L 1244 0 
L 625 0 
L 625 4841 
L 1409 4841 
L 3778 1141 
Q 3947 878 3978 806 
L 3991 806 
Q 3959 1013 3959 1513 
L 3959 4841 
L 4578 4841 
L 4578 0 
z
" transform="scale(0.015625)"/>
       <path id="MicrosoftYaHei-52" d="M 4159 0 
L 3422 0 
L 2619 1344 
Q 2378 1747 2178 1892 
Q 1978 2038 1700 2038 
L 1250 2038 
L 1250 0 
L 625 0 
L 625 4841 
L 2100 4841 
Q 2806 4841 3206 4500 
Q 3606 4159 3606 3547 
Q 3606 2541 2531 2241 
L 2531 2225 
Q 2731 2141 2876 1984 
Q 3022 1828 3253 1450 
L 4159 0 
z
M 1250 4294 
L 1250 2584 
L 1988 2584 
Q 2416 2584 2683 2834 
Q 2950 3084 2950 3491 
Q 2950 3869 2706 4081 
Q 2463 4294 1997 4294 
L 1250 4294 
z
" transform="scale(0.015625)"/>
       <path id="MicrosoftYaHei-20" transform="scale(0.015625)"/>
       <path id="MicrosoftYaHei-28" d="M 1531 -1100 
Q 478 100 478 1847 
Q 478 3594 1531 4841 
L 2072 4841 
Q 1016 3544 1016 1853 
Q 1016 166 2066 -1100 
L 1531 -1100 
z
" transform="scale(0.015625)"/>
       <path id="MicrosoftYaHei-64" d="M 3547 0 
L 2934 0 
L 2934 575 
L 2922 575 
Q 2544 -81 1747 -81 
Q 1091 -81 703 386 
Q 316 853 316 1647 
Q 316 2503 753 3020 
Q 1191 3538 1897 3538 
Q 2603 3538 2922 2988 
L 2934 2988 
L 2934 5116 
L 3547 5116 
L 3547 0 
z
M 2938 2056 
Q 2938 2472 2664 2751 
Q 2391 3031 1991 3031 
Q 1503 3031 1222 2667 
Q 941 2303 941 1675 
Q 941 1097 1211 761 
Q 1481 425 1931 425 
Q 2375 425 2656 754 
Q 2938 1084 2938 1575 
L 2938 2056 
z
" transform="scale(0.015625)"/>
       <path id="MicrosoftYaHei-42" d="M 625 0 
L 625 4841 
L 2047 4841 
Q 2684 4841 3065 4536 
Q 3447 4231 3447 3728 
Q 3447 3328 3220 3022 
Q 2994 2716 2597 2588 
L 2597 2575 
Q 3091 2519 3386 2201 
Q 3681 1884 3681 1397 
Q 3681 772 3232 386 
Q 2784 0 2084 0 
L 625 0 
z
M 1250 4294 
L 1250 2778 
L 1819 2778 
Q 2272 2778 2530 2998 
Q 2788 3219 2788 3609 
Q 2788 4294 1875 4294 
L 1250 4294 
z
M 1250 2234 
L 1250 547 
L 2000 547 
Q 2491 547 2758 773 
Q 3025 1000 3025 1403 
Q 3025 2234 1897 2234 
L 1250 2234 
z
" transform="scale(0.015625)"/>
       <path id="MicrosoftYaHei-29" d="M 78 -1100 
Q 1131 163 1131 1853 
Q 1131 3547 72 4841 
L 616 4841 
Q 1672 3603 1672 1847 
Q 1672 91 616 -1100 
L 78 -1100 
z
" transform="scale(0.015625)"/>
      </defs>
      <use xlink:href="#MicrosoftYaHei-53"/>
      <use xlink:href="#MicrosoftYaHei-4e" transform="translate(57.714844 0)"/>
      <use xlink:href="#MicrosoftYaHei-52" transform="translate(139.013672 0)"/>
      <use xlink:href="#MicrosoftYaHei-20" transform="translate(204.296875 0)"/>
      <use xlink:href="#MicrosoftYaHei-28" transform="translate(233.886719 0)"/>
      <use xlink:href="#MicrosoftYaHei-64" transform="translate(267.285156 0)"/>
      <use xlink:href="#MicrosoftYaHei-42" transform="translate(331.25 0)"/>
      <use xlink:href="#MicrosoftYaHei-29" transform="translate(393.994141 0)"/>
     </g>
    </g>
   </g>
   <g id="line2d_15">
    <path d="M 70.268182 83.138879 
L 73.661818 100.157224 
L 77.055455 121.621668 
L 80.449091 143.086111 
L 83.842727 146.663518 
L 87.236364 114.466853 
L 90.63 137.123765 
L 94.023636 168.127961 
L 97.417273 155.010802 
L 100.810909 112.081915 
L 104.204545 96.579817 
L 107.598182 66.76809 
L 110.991818 90.617472 
L 114.385455 70.345498 
L 117.779091 36.956364 
L 121.172727 36.956364 
L 124.566364 39.341302 
L 127.96 61.998214 
L 131.353636 107.312039 
L 134.747273 124.006606 
L 138.140909 144.27858 
L 141.534545 162.165616 
L 144.928182 153.818332 
L 148.321818 125.199075 
L 151.715455 133.546358 
L 155.109091 135.931296 
L 158.502727 129.968951 
L 161.896364 85.847595 
L 165.29 69.153029 
L 168.683636 59.613276 
L 172.077273 47.688585 
L 175.470909 36.956364 
L 178.864545 36.956364 
L 182.258182 39.341302 
L 185.651818 36.956364 
L 189.045455 36.956364 
L 192.439091 63.190683 
L 195.832727 106.11957 
L 199.226364 87.040065 
L 202.62 96.579817 
L 206.013636 97.772286 
L 209.407273 100.157224 
L 212.800909 85.847595 
L 216.194545 101.349693 
L 219.588182 59.613276 
L 222.981818 64.383152 
L 226.375455 64.383152 
L 229.769091 77.500312 
L 233.162727 73.922905 
L 236.556364 58.420807 
L 239.95 60.805745 
L 243.343636 73.922905 
L 246.737273 83.462657 
L 250.130909 91.809941 
L 253.524545 108.504508 
L 256.918182 91.809941 
L 260.311818 65.575621 
L 263.705455 96.579817 
L 267.099091 100.157224 
L 270.492727 144.27858 
L 273.886364 183.630059 
L 277.28 174.090307 
L 280.673636 182.43759 
L 284.067273 222.981538 
L 287.460909 238.483636 
L 290.854545 225.366477 
L 294.248182 220.5966 
L 297.641818 202.709564 
L 301.035455 170.512899 
L 304.429091 143.086111 
L 307.822727 152.625863 
L 311.216364 158.588209 
L 314.61 141.893642 
L 318.003636 101.349693 
L 321.397273 91.809941 
L 324.790909 76.307843 
L 328.184545 94.194879 
L 331.578182 69.153029 
L 334.971818 81.077719 
L 338.365455 76.307843 
L 341.759091 58.420807 
L 345.152727 87.040065 
L 348.546364 88.232534 
L 351.94 108.504508 
L 355.333636 129.968951 
L 358.727273 138.316235 
L 362.120909 63.190683 
L 365.514545 69.153029 
L 368.908182 84.655126 
L 372.301818 64.383152 
L 375.695455 54.8434 
L 379.089091 87.040065 
L 382.482727 61.998214 
L 385.876364 53.650931 
L 389.27 44.111178 
L 392.663636 57.228338 
L 396.057273 72.730436 
L 399.450909 52.458462 
L 402.844545 76.307843 
L 406.238182 69.153029 
L 409.631818 78.692781 
" clip-path="url(#p4e1eb47db4)" style="fill: none; stroke: #1f77b4; stroke-width: 1.5; stroke-linecap: square"/>
   </g>
   <g id="patch_3">
    <path d="M 53.3 248.56 
L 53.3 26.88 
" style="fill: none; stroke: #000000; stroke-width: 0.8; stroke-linejoin: miter; stroke-linecap: square"/>
   </g>
   <g id="patch_4">
    <path d="M 426.6 248.56 
L 426.6 26.88 
" style="fill: none; stroke: #000000; stroke-width: 0.8; stroke-linejoin: miter; stroke-linecap: square"/>
   </g>
   <g id="patch_5">
    <path d="M 53.3 248.56 
L 426.6 248.56 
" style="fill: none; stroke: #000000; stroke-width: 0.8; stroke-linejoin: miter; stroke-linecap: square"/>
   </g>
   <g id="patch_6">
    <path d="M 53.3 26.88 
L 426.6 26.88 
" style="fill: none; stroke: #000000; stroke-width: 0.8; stroke-linejoin: miter; stroke-linecap: square"/>
   </g>
   <g id="text_17">
    <!-- SNR History -->
    <g transform="translate(205.174375 20.88) scale(0.12 -0.12)">
     <defs>
      <path id="MicrosoftYaHei-48" d="M 4325 0 
L 3700 0 
L 3700 2181 
L 1250 2181 
L 1250 0 
L 625 0 
L 625 4841 
L 1250 4841 
L 1250 2738 
L 3700 2738 
L 3700 4841 
L 4325 4841 
L 4325 0 
z
" transform="scale(0.015625)"/>
      <path id="MicrosoftYaHei-73" d="M 353 747 
Q 816 413 1350 413 
Q 2066 413 2066 881 
Q 2066 1081 1909 1211 
Q 1753 1341 1275 1519 
Q 700 1750 528 1976 
Q 356 2203 356 2525 
Q 356 2984 745 3261 
Q 1134 3538 1703 3538 
Q 2144 3538 2522 3384 
L 2522 2794 
Q 2134 3044 1644 3044 
Q 1350 3044 1165 2916 
Q 981 2788 981 2578 
Q 981 2372 1114 2256 
Q 1247 2141 1703 1959 
Q 2281 1744 2484 1512 
Q 2688 1281 2688 941 
Q 2688 466 2298 192 
Q 1909 -81 1291 -81 
Q 753 -81 353 122 
L 353 747 
z
" transform="scale(0.015625)"/>
      <path id="MicrosoftYaHei-74" d="M 2206 34 
Q 2006 -75 1666 -75 
Q 738 -75 738 953 
L 738 2950 
L 144 2950 
L 144 3456 
L 738 3456 
L 738 4288 
L 1347 4481 
L 1347 3456 
L 2206 3456 
L 2206 2950 
L 1347 2950 
L 1347 1063 
Q 1347 722 1462 575 
Q 1578 428 1847 428 
Q 2053 428 2206 544 
L 2206 34 
z
" transform="scale(0.015625)"/>
      <path id="MicrosoftYaHei-6f" d="M 316 1691 
Q 316 2547 794 3042 
Q 1272 3538 2091 3538 
Q 2869 3538 3311 3061 
Q 3753 2584 3753 1744 
Q 3753 925 3281 422 
Q 2809 -81 2016 -81 
Q 1241 -81 778 406 
Q 316 894 316 1691 
z
M 941 1709 
Q 941 1113 1242 769 
Q 1544 425 2053 425 
Q 2578 425 2853 761 
Q 3128 1097 3128 1725 
Q 3128 2356 2853 2693 
Q 2578 3031 2053 3031 
Q 1538 3031 1239 2678 
Q 941 2325 941 1709 
z
" transform="scale(0.015625)"/>
      <path id="MicrosoftYaHei-72" d="M 2400 2850 
Q 2247 2959 1978 2959 
Q 1622 2959 1390 2626 
Q 1159 2294 1159 1750 
L 1159 0 
L 547 0 
L 547 3456 
L 1159 3456 
L 1159 2753 
L 1172 2753 
Q 1434 3516 2078 3516 
Q 2288 3516 2400 3469 
L 2400 2850 
z
" transform="scale(0.015625)"/>
      <path id="MicrosoftYaHei-79" d="M 3359 3456 
L 1791 -522 
Q 1353 -1628 556 -1628 
Q 328 -1628 166 -1578 
L 166 -1041 
Q 344 -1109 509 -1109 
Q 925 -1109 1131 -622 
L 1397 6 
L 41 3456 
L 719 3456 
L 1622 859 
L 1697 575 
L 1713 575 
Q 1731 672 1788 853 
L 2731 3456 
L 3359 3456 
z
" transform="scale(0.015625)"/>
     </defs>
     <use xlink:href="#MicrosoftYaHei-53"/>
     <use xlink:href="#MicrosoftYaHei-4e" transform="translate(57.714844 0)"/>
     <use xlink:href="#MicrosoftYaHei-52" transform="translate(139.013672 0)"/>
     <use xlink:href="#MicrosoftYaHei-20" transform="translate(204.296875 0)"/>
     <use xlink:href="#MicrosoftYaHei-48" transform="translate(233.886719 0)"/>
     <use xlink:href="#MicrosoftYaHei-69" transform="translate(311.230469 0)"/>
     <use xlink:href="#MicrosoftYaHei-73" transform="translate(337.841797 0)"/>
     <use xlink:href="#MicrosoftYaHei-74" transform="translate(384.130859 0)"/>
     <use xlink:href="#MicrosoftYaHei-6f" transform="translate(420.511719 0)"/>
     <use xlink:href="#MicrosoftYaHei-72" transform="translate(484.085938 0)"/>
     <use xlink:href="#MicrosoftYaHei-79" transform="translate(526.644531 0)"/>
    </g>
   </g>
   <g id="legend_1">
    <g id="patch_7">
     <path d="M 60.3 243.56 
L 135.042188 243.56 
Q 137.042188 243.56 137.042188 241.56 
L 137.042188 227.080312 
Q 137.042188 225.080312 135.042188 225.080312 
L 60.3 225.080312 
Q 58.3 225.080312 58.3 227.080312 
L 58.3 241.56 
Q 58.3 243.56 60.3 243.56 
z
" style="fill: #ffffff; opacity: 0.8; stroke: #cccccc; stroke-linejoin: miter"/>
    </g>
    <g id="line2d_16">
     <path d="M 62.3 233.574062 
L 72.3 233.574062 
L 82.3 233.574062 
" style="fill: none; stroke: #1f77b4; stroke-width: 1.5; stroke-linecap: square"/>
    </g>
    <g id="text_18">
     <!-- SNR (dB) -->
     <g transform="translate(90.3 237.074062) scale(0.1 -0.1)">
      <use xlink:href="#MicrosoftYaHei-53"/>
      <use xlink:href="#MicrosoftYaHei-4e" transform="translate(57.714844 0)"/>
      <use xlink:href="#MicrosoftYaHei-52" transform="translate(139.013672 0)"/>
      <use xlink:href="#MicrosoftYaHei-20" transform="translate(204.296875 0)"/>
      <use xlink:href="#MicrosoftYaHei-28" transform="translate(233.886719 0)"/>
      <use xlink:href="#MicrosoftYaHei-64" transform="translate(267.285156 0)"/>
      <use xlink:href="#MicrosoftYaHei-42" transform="translate(331.25 0)"/>
      <use xlink:href="#MicrosoftYaHei-29" transform="translate(393.994141 0)"/>
     </g>
    </g>
   </g>
  </g>
  <g id="axes_2">
   <g id="patch_8">
    <path d="M 479.9 248.56 
L 853.2 248.56 
L 853.2 26.88 
L 479.9 26.88 
z
" style="fill: #ffffff"/>
   </g>
   <g id="matplotlib.axis_3">
    <g id="xtick_7">
     <g id="line2d_17">
      <g>
       <use xlink:href="#me7947369ea" x="496.868182" y="248.56" style="stroke: #000000; stroke-width: 0.8"/>
      </g>
     </g>
     <g id="text_19">
      <!-- 0 -->
      <g transform="translate(493.936151 263.55375) scale(0.1 -0.1)">
       <use xlink:href="#MicrosoftYaHei-30"/>
      </g>
     </g>
    </g>
    <g id="xtick_8">
     <g id="line2d_18">
      <g>
       <use xlink:href="#me7947369ea" x="564.740909" y="248.56" style="stroke: #000000; stroke-width: 0.8"/>
      </g>
     </g>
     <g id="text_20">
      <!-- 20 -->
      <g transform="translate(558.876847 263.55375) scale(0.1 -0.1)">
       <use xlink:href="#MicrosoftYaHei-32"/>
       <use xlink:href="#MicrosoftYaHei-30" transform="translate(58.642578 0)"/>
      </g>
     </g>
    </g>
    <g id="xtick_9">
     <g id="line2d_19">
      <g>
       <use xlink:href="#me7947369ea" x="632.613636" y="248.56" style="stroke: #000000; stroke-width: 0.8"/>
      </g>
     </g>
     <g id="text_21">
      <!-- 40 -->
      <g transform="translate(626.749574 263.55375) scale(0.1 -0.1)">
       <use xlink:href="#MicrosoftYaHei-34"/>
       <use xlink:href="#MicrosoftYaHei-30" transform="translate(58.642578 0)"/>
      </g>
     </g>
    </g>
    <g id="xtick_10">
     <g id="line2d_20">
      <g>
       <use xlink:href="#me7947369ea" x="700.486364" y="248.56" style="stroke: #000000; stroke-width: 0.8"/>
      </g>
     </g>
     <g id="text_22">
      <!-- 60 -->
      <g transform="translate(694.622301 263.55375) scale(0.1 -0.1)">
       <use xlink:href="#MicrosoftYaHei-36"/>
       <use xlink:href="#MicrosoftYaHei-30" transform="translate(58.642578 0)"/>
      </g>
     </g>
    </g>
    <g id="xtick_11">
     <g id="line2d_21">
      <g>
       <use xlink:href="#me7947369ea" x="768.359091" y="248.56" style="stroke: #000000; stroke-width: 0.8"/>
      </g>
     </g>
     <g id="text_23">
      <!-- 80 -->
      <g transform="translate(762.495028 263.55375) scale(0.1 -0.1)">
       <use xlink:href="#MicrosoftYaHei-38"/>
       <use xlink:href="#MicrosoftYaHei-30" transform="translate(58.642578 0)"/>
      </g>
     </g>
    </g>
    <g id="xtick_12">
     <g id="line2d_22">
      <g>
       <use xlink:href="#me7947369ea" x="836.231818" y="248.56" style="stroke: #000000; stroke-width: 0.8"/>
      </g>
     </g>
     <g id="text_24">
      <!-- 100 -->
      <g transform="translate(827.435724 263.55375) scale(0.1 -0.1)">
       <use xlink:href="#MicrosoftYaHei-31"/>
       <use xlink:href="#MicrosoftYaHei-30" transform="translate(58.642578 0)"/>
       <use xlink:href="#MicrosoftYaHei-30" transform="translate(117.285156 0)"/>
      </g>
     </g>
    </g>
    <g id="text_25">
     <!-- Time -->
     <g transform="translate(654.83125 278.033437) scale(0.1 -0.1)">
      <use xlink:href="#MicrosoftYaHei-54"/>
      <use xlink:href="#MicrosoftYaHei-69" transform="translate(57.324219 0)"/>
      <use xlink:href="#MicrosoftYaHei-6d" transform="translate(83.935547 0)"/>
      <use xlink:href="#MicrosoftYaHei-65" transform="translate(177.636719 0)"/>
     </g>
    </g>
   </g>
   <g id="matplotlib.axis_4">
    <g id="ytick_9">
     <g id="line2d_23">
      <g>
       <use xlink:href="#md3499f836f" x="479.9" y="218.330909" style="stroke: #000000; stroke-width: 0.8"/>
      </g>
     </g>
     <g id="text_26">
      <!-- 6 -->
      <g transform="translate(467.035937 222.327784) scale(0.1 -0.1)">
       <use xlink:href="#MicrosoftYaHei-36"/>
      </g>
     </g>
    </g>
    <g id="ytick_10">
     <g id="line2d_24">
      <g>
       <use xlink:href="#md3499f836f" x="479.9" y="178.025455" style="stroke: #000000; stroke-width: 0.8"/>
      </g>
     </g>
     <g id="text_27">
      <!-- 8 -->
      <g transform="translate(467.035937 182.02233) scale(0.1 -0.1)">
       <use xlink:href="#MicrosoftYaHei-38"/>
      </g>
     </g>
    </g>
    <g id="ytick_11">
     <g id="line2d_25">
      <g>
       <use xlink:href="#md3499f836f" x="479.9" y="137.72" style="stroke: #000000; stroke-width: 0.8"/>
      </g>
     </g>
     <g id="text_28">
      <!-- 10 -->
      <g transform="translate(461.171875 141.716875) scale(0.1 -0.1)">
       <use xlink:href="#MicrosoftYaHei-31"/>
       <use xlink:href="#MicrosoftYaHei-30" transform="translate(58.642578 0)"/>
      </g>
     </g>
    </g>
    <g id="ytick_12">
     <g id="line2d_26">
      <g>
       <use xlink:href="#md3499f836f" x="479.9" y="97.414545" style="stroke: #000000; stroke-width: 0.8"/>
      </g>
     </g>
     <g id="text_29">
      <!-- 12 -->
      <g transform="translate(461.171875 101.41142) scale(0.1 -0.1)">
       <use xlink:href="#MicrosoftYaHei-31"/>
       <use xlink:href="#MicrosoftYaHei-32" transform="translate(58.642578 0)"/>
      </g>
     </g>
    </g>
    <g id="ytick_13">
     <g id="line2d_27">
      <g>
       <use xlink:href="#md3499f836f" x="479.9" y="57.109091" style="stroke: #000000; stroke-width: 0.8"/>
      </g>
     </g>
     <g id="text_30">
      <!-- 14 -->
      <g transform="translate(461.171875 61.105966) scale(0.1 -0.1)">
       <use xlink:href="#MicrosoftYaHei-31"/>
       <use xlink:href="#MicrosoftYaHei-34" transform="translate(58.642578 0)"/>
      </g>
     </g>
    </g>
    <g id="text_31">
     <!-- CQI -->
     <g transform="translate(454.685937 146.465312) rotate(-90) scale(0.1 -0.1)">
      <defs>
       <path id="MicrosoftYaHei-43" d="M 3938 200 
Q 3403 -81 2597 -81 
Q 1556 -81 934 580 
Q 313 1241 313 2328 
Q 313 3497 1013 4209 
Q 1713 4922 2791 4922 
Q 3484 4922 3938 4725 
L 3938 4072 
Q 3419 4359 2797 4359 
Q 1988 4359 1478 3820 
Q 969 3281 969 2366 
Q 969 1497 1444 986 
Q 1919 475 2688 475 
Q 3406 475 3938 800 
L 3938 200 
z
" transform="scale(0.015625)"/>
       <path id="MicrosoftYaHei-51" d="M 313 2363 
Q 313 3534 947 4228 
Q 1581 4922 2666 4922 
Q 3675 4922 4290 4244 
Q 4906 3566 4906 2478 
Q 4906 1300 4275 609 
Q 4125 447 3953 322 
L 5313 -653 
L 4284 -653 
L 3366 28 
Q 3009 -81 2588 -81 
Q 1556 -81 934 597 
Q 313 1275 313 2363 
z
M 969 2413 
Q 969 1534 1417 1004 
Q 1866 475 2588 475 
Q 3363 475 3805 983 
Q 4247 1491 4247 2403 
Q 4247 3341 3814 3850 
Q 3381 4359 2628 4359 
Q 1888 4359 1428 3821 
Q 969 3284 969 2413 
z
" transform="scale(0.015625)"/>
       <path id="MicrosoftYaHei-49" d="M 1250 4841 
L 1250 0 
L 625 0 
L 625 4841 
L 1250 4841 
z
" transform="scale(0.015625)"/>
      </defs>
      <use xlink:href="#MicrosoftYaHei-43"/>
      <use xlink:href="#MicrosoftYaHei-51" transform="translate(64.019531 0)"/>
      <use xlink:href="#MicrosoftYaHei-49" transform="translate(145.513672 0)"/>
     </g>
    </g>
   </g>
   <g id="line2d_28">
    <path d="M 496.868182 97.414545 
L 500.261818 117.567273 
L 503.655455 137.72 
L 507.049091 137.72 
L 510.442727 157.872727 
L 513.836364 117.567273 
L 517.23 137.72 
L 520.623636 157.872727 
L 524.017273 157.872727 
L 527.410909 117.567273 
L 530.804545 97.414545 
L 534.198182 77.261818 
L 537.591818 97.414545 
L 540.985455 77.261818 
L 544.379091 36.956364 
L 547.772727 36.956364 
L 551.166364 36.956364 
L 554.56 77.261818 
L 557.953636 117.567273 
L 561.347273 137.72 
L 564.740909 137.72 
L 568.134545 157.872727 
L 571.528182 157.872727 
L 574.921818 137.72 
L 578.315455 137.72 
L 581.709091 137.72 
L 585.102727 137.72 
L 588.496364 97.414545 
L 591.89 77.261818 
L 595.283636 57.109091 
L 598.677273 36.956364 
L 602.070909 36.956364 
L 605.464545 36.956364 
L 608.858182 36.956364 
L 612.251818 36.956364 
L 615.645455 36.956364 
L 619.039091 77.261818 
L 622.432727 117.567273 
L 625.826364 97.414545 
L 629.22 97.414545 
L 632.613636 117.567273 
L 636.007273 117.567273 
L 639.400909 97.414545 
L 642.794545 117.567273 
L 646.188182 57.109091 
L 649.581818 77.261818 
L 652.975455 77.261818 
L 656.369091 77.261818 
L 659.762727 77.261818 
L 663.156364 57.109091 
L 666.55 57.109091 
L 669.943636 77.261818 
L 673.337273 97.414545 
L 676.730909 97.414545 
L 680.124545 117.567273 
L 683.518182 97.414545 
L 686.911818 77.261818 
L 690.305455 97.414545 
L 693.699091 117.567273 
L 697.092727 137.72 
L 700.486364 178.025455 
L 703.88 178.025455 
L 707.273636 178.025455 
L 710.667273 218.330909 
L 714.060909 238.483636 
L 717.454545 218.330909 
L 720.848182 218.330909 
L 724.241818 198.178182 
L 727.635455 178.025455 
L 731.029091 137.72 
L 734.422727 157.872727 
L 737.816364 157.872727 
L 741.21 137.72 
L 744.603636 117.567273 
L 747.997273 97.414545 
L 751.390909 77.261818 
L 754.784545 97.414545 
L 758.178182 77.261818 
L 761.571818 97.414545 
L 764.965455 77.261818 
L 768.359091 57.109091 
L 771.752727 97.414545 
L 775.146364 97.414545 
L 778.54 117.567273 
L 781.933636 137.72 
L 785.327273 137.72 
L 788.720909 77.261818 
L 792.114545 77.261818 
L 795.508182 97.414545 
L 798.901818 77.261818 
L 802.295455 57.109091 
L 805.689091 97.414545 
L 809.082727 77.261818 
L 812.476364 57.109091 
L 815.87 36.956364 
L 819.263636 57.109091 
L 822.657273 77.261818 
L 826.050909 57.109091 
L 829.444545 77.261818 
L 832.838182 77.261818 
L 836.231818 77.261818 
" clip-path="url(#p315b1cf676)" style="fill: none; stroke: #ffa500; stroke-width: 1.5; stroke-linecap: square"/>
   </g>
   <g id="patch_9">
    <path d="M 479.9 248.56 
L 479.9 26.88 
" style="fill: none; stroke: #000000; stroke-width: 0.8; stroke-linejoin: miter; stroke-linecap: square"/>
   </g>
   <g id="patch_10">
    <path d="M 853.2 248.56 
L 853.2 26.88 
" style="fill: none; stroke: #000000; stroke-width: 0.8; stroke-linejoin: miter; stroke-linecap: square"/>
   </g>
   <g id="patch_11">
    <path d="M 479.9 248.56 
L 853.2 248.56 
" style="fill: none; stroke: #000000; stroke-width: 0.8; stroke-linejoin: miter; stroke-linecap: square"/>
   </g>
   <g id="patch_12">
    <path d="M 479.9 26.88 
L 853.2 26.88 
" style="fill: none; stroke: #000000; stroke-width: 0.8; stroke-linejoin: miter; stroke-linecap: square"/>
   </g>
   <g id="text_32">
    <!-- CQI History -->
    <g transform="translate(633.537812 20.88) scale(0.12 -0.12)">
     <use xlink:href="#MicrosoftYaHei-43"/>
     <use xlink:href="#MicrosoftYaHei-51" transform="translate(64.019531 0)"/>
     <use xlink:href="#MicrosoftYaHei-49" transform="translate(145.513672 0)"/>
     <use xlink:href="#MicrosoftYaHei-20" transform="translate(174.908203 0)"/>
     <use xlink:href="#MicrosoftYaHei-48" transform="translate(204.498047 0)"/>
     <use xlink:href="#MicrosoftYaHei-69" transform="translate(281.841797 0)"/>
     <use xlink:href="#MicrosoftYaHei-73" transform="translate(308.453125 0)"/>
     <use xlink:href="#MicrosoftYaHei-74" transform="translate(354.742188 0)"/>
     <use xlink:href="#MicrosoftYaHei-6f" transform="translate(391.123047 0)"/>
     <use xlink:href="#MicrosoftYaHei-72" transform="translate(454.697266 0)"/>
     <use xlink:href="#MicrosoftYaHei-79" transform="translate(497.255859 0)"/>
    </g>
   </g>
   <g id="legend_2">
    <g id="patch_13">
     <path d="M 486.9 50.359688 
L 536.390625 50.359688 
Q 538.390625 50.359688 538.390625 48.359688 
L 538.390625 33.88 
Q 538.390625 31.88 536.390625 31.88 
L 486.9 31.88 
Q 484.9 31.88 484.9 33.88 
L 484.9 48.359688 
Q 484.9 50.359688 486.9 50.359688 
z
" style="fill: #ffffff; opacity: 0.8; stroke: #cccccc; stroke-linejoin: miter"/>
    </g>
    <g id="line2d_29">
     <path d="M 488.9 40.37375 
L 498.9 40.37375 
L 508.9 40.37375 
" style="fill: none; stroke: #ffa500; stroke-width: 1.5; stroke-linecap: square"/>
    </g>
    <g id="text_33">
     <!-- CQI -->
     <g transform="translate(516.9 43.87375) scale(0.1 -0.1)">
      <use xlink:href="#MicrosoftYaHei-43"/>
      <use xlink:href="#MicrosoftYaHei-51" transform="translate(64.019531 0)"/>
      <use xlink:href="#MicrosoftYaHei-49" transform="translate(145.513672 0)"/>
     </g>
    </g>
   </g>
  </g>
  <g id="axes_3">
   <g id="patch_14">
    <path d="M 53.3 531.16 
L 426.6 531.16 
L 426.6 309.48 
L 53.3 309.48 
z
" style="fill: #ffffff"/>
   </g>
   <g id="matplotlib.axis_5">
    <g id="xtick_13">
     <g id="line2d_30">
      <g>
       <use xlink:href="#me7947369ea" x="70.268182" y="531.16" style="stroke: #000000; stroke-width: 0.8"/>
      </g>
     </g>
     <g id="text_34">
      <!-- 0 -->
      <g transform="translate(67.336151 546.15375) scale(0.1 -0.1)">
       <use xlink:href="#MicrosoftYaHei-30"/>
      </g>
     </g>
    </g>
    <g id="xtick_14">
     <g id="line2d_31">
      <g>
       <use xlink:href="#me7947369ea" x="138.140909" y="531.16" style="stroke: #000000; stroke-width: 0.8"/>
      </g>
     </g>
     <g id="text_35">
      <!-- 20 -->
      <g transform="translate(132.276847 546.15375) scale(0.1 -0.1)">
       <use xlink:href="#MicrosoftYaHei-32"/>
       <use xlink:href="#MicrosoftYaHei-30" transform="translate(58.642578 0)"/>
      </g>
     </g>
    </g>
    <g id="xtick_15">
     <g id="line2d_32">
      <g>
       <use xlink:href="#me7947369ea" x="206.013636" y="531.16" style="stroke: #000000; stroke-width: 0.8"/>
      </g>
     </g>
     <g id="text_36">
      <!-- 40 -->
      <g transform="translate(200.149574 546.15375) scale(0.1 -0.1)">
       <use xlink:href="#MicrosoftYaHei-34"/>
       <use xlink:href="#MicrosoftYaHei-30" transform="translate(58.642578 0)"/>
      </g>
     </g>
    </g>
    <g id="xtick_16">
     <g id="line2d_33">
      <g>
       <use xlink:href="#me7947369ea" x="273.886364" y="531.16" style="stroke: #000000; stroke-width: 0.8"/>
      </g>
     </g>
     <g id="text_37">
      <!-- 60 -->
      <g transform="translate(268.022301 546.15375) scale(0.1 -0.1)">
       <use xlink:href="#MicrosoftYaHei-36"/>
       <use xlink:href="#MicrosoftYaHei-30" transform="translate(58.642578 0)"/>
      </g>
     </g>
    </g>
    <g id="xtick_17">
     <g id="line2d_34">
      <g>
       <use xlink:href="#me7947369ea" x="341.759091" y="531.16" style="stroke: #000000; stroke-width: 0.8"/>
      </g>
     </g>
     <g id="text_38">
      <!-- 80 -->
      <g transform="translate(335.895028 546.15375) scale(0.1 -0.1)">
       <use xlink:href="#MicrosoftYaHei-38"/>
       <use xlink:href="#MicrosoftYaHei-30" transform="translate(58.642578 0)"/>
      </g>
     </g>
    </g>
    <g id="xtick_18">
     <g id="line2d_35">
      <g>
       <use xlink:href="#me7947369ea" x="409.631818" y="531.16" style="stroke: #000000; stroke-width: 0.8"/>
      </g>
     </g>
     <g id="text_39">
      <!-- 100 -->
      <g transform="translate(400.835724 546.15375) scale(0.1 -0.1)">
       <use xlink:href="#MicrosoftYaHei-31"/>
       <use xlink:href="#MicrosoftYaHei-30" transform="translate(58.642578 0)"/>
       <use xlink:href="#MicrosoftYaHei-30" transform="translate(117.285156 0)"/>
      </g>
     </g>
    </g>
    <g id="text_40">
     <!-- Time -->
     <g transform="translate(228.23125 560.633438) scale(0.1 -0.1)">
      <use xlink:href="#MicrosoftYaHei-54"/>
      <use xlink:href="#MicrosoftYaHei-69" transform="translate(57.324219 0)"/>
      <use xlink:href="#MicrosoftYaHei-6d" transform="translate(83.935547 0)"/>
      <use xlink:href="#MicrosoftYaHei-65" transform="translate(177.636719 0)"/>
     </g>
    </g>
   </g>
   <g id="matplotlib.axis_6">
    <g id="ytick_14">
     <g id="line2d_36">
      <g>
       <use xlink:href="#md3499f836f" x="53.3" y="526.121818" style="stroke: #000000; stroke-width: 0.8"/>
      </g>
     </g>
     <g id="text_41">
      <!-- 7.5 -->
      <g transform="translate(32.164062 530.118693) scale(0.1 -0.1)">
       <use xlink:href="#MicrosoftYaHei-37"/>
       <use xlink:href="#MicrosoftYaHei-2e" transform="translate(58.642578 0)"/>
       <use xlink:href="#MicrosoftYaHei-35" transform="translate(82.714844 0)"/>
      </g>
     </g>
    </g>
    <g id="ytick_15">
     <g id="line2d_37">
      <g>
       <use xlink:href="#md3499f836f" x="53.3" y="500.930909" style="stroke: #000000; stroke-width: 0.8"/>
      </g>
     </g>
     <g id="text_42">
      <!-- 10.0 -->
      <g transform="translate(26.3 504.927784) scale(0.1 -0.1)">
       <use xlink:href="#MicrosoftYaHei-31"/>
       <use xlink:href="#MicrosoftYaHei-30" transform="translate(58.642578 0)"/>
       <use xlink:href="#MicrosoftYaHei-2e" transform="translate(117.285156 0)"/>
       <use xlink:href="#MicrosoftYaHei-30" transform="translate(141.357422 0)"/>
      </g>
     </g>
    </g>
    <g id="ytick_16">
     <g id="line2d_38">
      <g>
       <use xlink:href="#md3499f836f" x="53.3" y="475.74" style="stroke: #000000; stroke-width: 0.8"/>
      </g>
     </g>
     <g id="text_43">
      <!-- 12.5 -->
      <g transform="translate(26.3 479.736875) scale(0.1 -0.1)">
       <use xlink:href="#MicrosoftYaHei-31"/>
       <use xlink:href="#MicrosoftYaHei-32" transform="translate(58.642578 0)"/>
       <use xlink:href="#MicrosoftYaHei-2e" transform="translate(117.285156 0)"/>
       <use xlink:href="#MicrosoftYaHei-35" transform="translate(141.357422 0)"/>
      </g>
     </g>
    </g>
    <g id="ytick_17">
     <g id="line2d_39">
      <g>
       <use xlink:href="#md3499f836f" x="53.3" y="450.549091" style="stroke: #000000; stroke-width: 0.8"/>
      </g>
     </g>
     <g id="text_44">
      <!-- 15.0 -->
      <g transform="translate(26.3 454.545966) scale(0.1 -0.1)">
       <use xlink:href="#MicrosoftYaHei-31"/>
       <use xlink:href="#MicrosoftYaHei-35" transform="translate(58.642578 0)"/>
       <use xlink:href="#MicrosoftYaHei-2e" transform="translate(117.285156 0)"/>
       <use xlink:href="#MicrosoftYaHei-30" transform="translate(141.357422 0)"/>
      </g>
     </g>
    </g>
    <g id="ytick_18">
     <g id="line2d_40">
      <g>
       <use xlink:href="#md3499f836f" x="53.3" y="425.358182" style="stroke: #000000; stroke-width: 0.8"/>
      </g>
     </g>
     <g id="text_45">
      <!-- 17.5 -->
      <g transform="translate(26.3 429.355057) scale(0.1 -0.1)">
       <use xlink:href="#MicrosoftYaHei-31"/>
       <use xlink:href="#MicrosoftYaHei-37" transform="translate(58.642578 0)"/>
       <use xlink:href="#MicrosoftYaHei-2e" transform="translate(117.285156 0)"/>
       <use xlink:href="#MicrosoftYaHei-35" transform="translate(141.357422 0)"/>
      </g>
     </g>
    </g>
    <g id="ytick_19">
     <g id="line2d_41">
      <g>
       <use xlink:href="#md3499f836f" x="53.3" y="400.167273" style="stroke: #000000; stroke-width: 0.8"/>
      </g>
     </g>
     <g id="text_46">
      <!-- 20.0 -->
      <g transform="translate(26.3 404.164148) scale(0.1 -0.1)">
       <use xlink:href="#MicrosoftYaHei-32"/>
       <use xlink:href="#MicrosoftYaHei-30" transform="translate(58.642578 0)"/>
       <use xlink:href="#MicrosoftYaHei-2e" transform="translate(117.285156 0)"/>
       <use xlink:href="#MicrosoftYaHei-30" transform="translate(141.357422 0)"/>
      </g>
     </g>
    </g>
    <g id="ytick_20">
     <g id="line2d_42">
      <g>
       <use xlink:href="#md3499f836f" x="53.3" y="374.976364" style="stroke: #000000; stroke-width: 0.8"/>
      </g>
     </g>
     <g id="text_47">
      <!-- 22.5 -->
      <g transform="translate(26.3 378.973239) scale(0.1 -0.1)">
       <use xlink:href="#MicrosoftYaHei-32"/>
       <use xlink:href="#MicrosoftYaHei-32" transform="translate(58.642578 0)"/>
       <use xlink:href="#MicrosoftYaHei-2e" transform="translate(117.285156 0)"/>
       <use xlink:href="#MicrosoftYaHei-35" transform="translate(141.357422 0)"/>
      </g>
     </g>
    </g>
    <g id="ytick_21">
     <g id="line2d_43">
      <g>
       <use xlink:href="#md3499f836f" x="53.3" y="349.785455" style="stroke: #000000; stroke-width: 0.8"/>
      </g>
     </g>
     <g id="text_48">
      <!-- 25.0 -->
      <g transform="translate(26.3 353.78233) scale(0.1 -0.1)">
       <use xlink:href="#MicrosoftYaHei-32"/>
       <use xlink:href="#MicrosoftYaHei-35" transform="translate(58.642578 0)"/>
       <use xlink:href="#MicrosoftYaHei-2e" transform="translate(117.285156 0)"/>
       <use xlink:href="#MicrosoftYaHei-30" transform="translate(141.357422 0)"/>
      </g>
     </g>
    </g>
    <g id="ytick_22">
     <g id="line2d_44">
      <g>
       <use xlink:href="#md3499f836f" x="53.3" y="324.594545" style="stroke: #000000; stroke-width: 0.8"/>
      </g>
     </g>
     <g id="text_49">
      <!-- 27.5 -->
      <g transform="translate(26.3 328.59142) scale(0.1 -0.1)">
       <use xlink:href="#MicrosoftYaHei-32"/>
       <use xlink:href="#MicrosoftYaHei-37" transform="translate(58.642578 0)"/>
       <use xlink:href="#MicrosoftYaHei-2e" transform="translate(117.285156 0)"/>
       <use xlink:href="#MicrosoftYaHei-35" transform="translate(141.357422 0)"/>
      </g>
     </g>
    </g>
    <g id="text_50">
     <!-- MCS Index -->
     <g transform="translate(19.814062 446.035625) rotate(-90) scale(0.1 -0.1)">
      <defs>
       <path id="MicrosoftYaHei-4d" d="M 5003 0 
L 5003 3206 
Q 5003 3603 5050 4159 
L 5034 4159 
Q 4953 3809 4891 3672 
L 3294 0 
L 2947 0 
L 1353 3644 
Q 1297 3769 1209 4159 
L 1191 4159 
Q 1222 3822 1222 3178 
L 1222 0 
L 625 0 
L 625 4841 
L 1472 4841 
L 2900 1522 
Q 3063 1141 3116 928 
L 3138 928 
Q 3300 1375 3366 1534 
L 4819 4841 
L 5625 4841 
L 5625 0 
L 5003 0 
z
" transform="scale(0.015625)"/>
       <path id="MicrosoftYaHei-6e" d="M 3469 0 
L 2859 0 
L 2859 1966 
Q 2859 3031 2081 3031 
Q 1678 3031 1418 2731 
Q 1159 2431 1159 1972 
L 1159 0 
L 547 0 
L 547 3456 
L 1159 3456 
L 1159 2884 
L 1172 2884 
Q 1563 3538 2306 3538 
Q 2875 3538 3172 3173 
Q 3469 2809 3469 2113 
L 3469 0 
z
" transform="scale(0.015625)"/>
       <path id="MicrosoftYaHei-78" d="M 3163 3456 
L 2006 1716 
L 3147 0 
L 2434 0 
L 1775 1100 
Q 1722 1188 1625 1369 
L 1613 1369 
Q 1609 1350 1456 1100 
L 784 0 
L 81 0 
L 1256 1697 
L 134 3456 
L 847 3456 
L 1494 2300 
Q 1553 2194 1638 2025 
L 1650 2025 
L 2491 3456 
L 3163 3456 
z
" transform="scale(0.015625)"/>
      </defs>
      <use xlink:href="#MicrosoftYaHei-4d"/>
      <use xlink:href="#MicrosoftYaHei-43" transform="translate(97.705078 0)"/>
      <use xlink:href="#MicrosoftYaHei-53" transform="translate(164.599609 0)"/>
      <use xlink:href="#MicrosoftYaHei-20" transform="translate(222.314453 0)"/>
      <use xlink:href="#MicrosoftYaHei-49" transform="translate(251.904297 0)"/>
      <use xlink:href="#MicrosoftYaHei-6e" transform="translate(281.298828 0)"/>
      <use xlink:href="#MicrosoftYaHei-64" transform="translate(342.919922 0)"/>
      <use xlink:href="#MicrosoftYaHei-65" transform="translate(406.884766 0)"/>
      <use xlink:href="#MicrosoftYaHei-78" transform="translate(463.623047 0)"/>
     </g>
    </g>
   </g>
   <g id="line2d_45">
    <path d="M 70.268182 359.861818 
L 73.661818 319.556364 
L 77.055455 329.632727 
L 80.449091 369.938182 
L 83.842727 369.938182 
L 87.236364 319.556364 
L 90.63 359.861818 
L 94.023636 410.243636 
L 97.417273 390.090909 
L 100.810909 319.556364 
L 104.204545 319.556364 
L 107.598182 319.556364 
L 110.991818 319.556364 
L 114.385455 319.556364 
L 117.779091 319.556364 
L 121.172727 319.556364 
L 124.566364 319.556364 
L 127.96 319.556364 
L 131.353636 319.556364 
L 134.747273 329.632727 
L 138.140909 369.938182 
L 141.534545 400.167273 
L 144.928182 390.090909 
L 148.321818 339.709091 
L 151.715455 349.785455 
L 155.109091 349.785455 
L 158.502727 339.709091 
L 161.896364 319.556364 
L 165.29 319.556364 
L 168.683636 319.556364 
L 172.077273 319.556364 
L 175.470909 319.556364 
L 178.864545 319.556364 
L 182.258182 319.556364 
L 185.651818 319.556364 
L 189.045455 319.556364 
L 192.439091 319.556364 
L 195.832727 319.556364 
L 199.226364 319.556364 
L 202.62 319.556364 
L 206.013636 319.556364 
L 209.407273 319.556364 
L 212.800909 319.556364 
L 216.194545 319.556364 
L 219.588182 319.556364 
L 222.981818 319.556364 
L 226.375455 319.556364 
L 229.769091 319.556364 
L 233.162727 319.556364 
L 236.556364 319.556364 
L 239.95 319.556364 
L 243.343636 319.556364 
L 246.737273 319.556364 
L 250.130909 319.556364 
L 253.524545 319.556364 
L 256.918182 319.556364 
L 260.311818 319.556364 
L 263.705455 319.556364 
L 267.099091 319.556364 
L 270.492727 369.938182 
L 273.886364 440.472727 
L 277.28 420.32 
L 280.673636 440.472727 
L 284.067273 500.930909 
L 287.460909 521.083636 
L 290.854545 511.007273 
L 294.248182 500.930909 
L 297.641818 460.625455 
L 301.035455 420.32 
L 304.429091 369.938182 
L 307.822727 380.014545 
L 311.216364 390.090909 
L 314.61 359.861818 
L 318.003636 319.556364 
L 321.397273 319.556364 
L 324.790909 319.556364 
L 328.184545 319.556364 
L 331.578182 319.556364 
L 334.971818 319.556364 
L 338.365455 319.556364 
L 341.759091 319.556364 
L 345.152727 319.556364 
L 348.546364 319.556364 
L 351.94 319.556364 
L 355.333636 339.709091 
L 358.727273 359.861818 
L 362.120909 319.556364 
L 365.514545 319.556364 
L 368.908182 319.556364 
L 372.301818 319.556364 
L 375.695455 319.556364 
L 379.089091 319.556364 
L 382.482727 319.556364 
L 385.876364 319.556364 
L 389.27 319.556364 
L 392.663636 319.556364 
L 396.057273 319.556364 
L 399.450909 319.556364 
L 402.844545 319.556364 
L 406.238182 319.556364 
L 409.631818 319.556364 
" clip-path="url(#p74a46064c6)" style="fill: none; stroke: #008000; stroke-width: 1.5; stroke-linecap: square"/>
   </g>
   <g id="patch_15">
    <path d="M 53.3 531.16 
L 53.3 309.48 
" style="fill: none; stroke: #000000; stroke-width: 0.8; stroke-linejoin: miter; stroke-linecap: square"/>
   </g>
   <g id="patch_16">
    <path d="M 426.6 531.16 
L 426.6 309.48 
" style="fill: none; stroke: #000000; stroke-width: 0.8; stroke-linejoin: miter; stroke-linecap: square"/>
   </g>
   <g id="patch_17">
    <path d="M 53.3 531.16 
L 426.6 531.16 
" style="fill: none; stroke: #000000; stroke-width: 0.8; stroke-linejoin: miter; stroke-linecap: square"/>
   </g>
   <g id="patch_18">
    <path d="M 53.3 309.48 
L 426.6 309.48 
" style="fill: none; stroke: #000000; stroke-width: 0.8; stroke-linejoin: miter; stroke-linecap: square"/>
   </g>
   <g id="text_51">
    <!-- MCS History -->
    <g transform="translate(204.093437 303.48) scale(0.12 -0.12)">
     <use xlink:href="#MicrosoftYaHei-4d"/>
     <use xlink:href="#MicrosoftYaHei-43" transform="translate(97.705078 0)"/>
     <use xlink:href="#MicrosoftYaHei-53" transform="translate(164.599609 0)"/>
     <use xlink:href="#MicrosoftYaHei-20" transform="translate(222.314453 0)"/>
     <use xlink:href="#MicrosoftYaHei-48" transform="translate(251.904297 0)"/>
     <use xlink:href="#MicrosoftYaHei-69" transform="translate(329.248047 0)"/>
     <use xlink:href="#MicrosoftYaHei-73" transform="translate(355.859375 0)"/>
     <use xlink:href="#MicrosoftYaHei-74" transform="translate(402.148438 0)"/>
     <use xlink:href="#MicrosoftYaHei-6f" transform="translate(438.529297 0)"/>
     <use xlink:href="#MicrosoftYaHei-72" transform="translate(502.103516 0)"/>
     <use xlink:href="#MicrosoftYaHei-79" transform="translate(544.662109 0)"/>
    </g>
   </g>
   <g id="legend_3">
    <g id="patch_19">
     <path d="M 60.3 526.16 
L 143.73125 526.16 
Q 145.73125 526.16 145.73125 524.16 
L 145.73125 509.680313 
Q 145.73125 507.680313 143.73125 507.680313 
L 60.3 507.680313 
Q 58.3 507.680313 58.3 509.680313 
L 58.3 524.16 
Q 58.3 526.16 60.3 526.16 
z
" style="fill: #ffffff; opacity: 0.8; stroke: #cccccc; stroke-linejoin: miter"/>
    </g>
    <g id="line2d_46">
     <path d="M 62.3 516.174062 
L 72.3 516.174062 
L 82.3 516.174062 
" style="fill: none; stroke: #008000; stroke-width: 1.5; stroke-linecap: square"/>
    </g>
    <g id="text_52">
     <!-- MCS Index -->
     <g transform="translate(90.3 519.674062) scale(0.1 -0.1)">
      <use xlink:href="#MicrosoftYaHei-4d"/>
      <use xlink:href="#MicrosoftYaHei-43" transform="translate(97.705078 0)"/>
      <use xlink:href="#MicrosoftYaHei-53" transform="translate(164.599609 0)"/>
      <use xlink:href="#MicrosoftYaHei-20" transform="translate(222.314453 0)"/>
      <use xlink:href="#MicrosoftYaHei-49" transform="translate(251.904297 0)"/>
      <use xlink:href="#MicrosoftYaHei-6e" transform="translate(281.298828 0)"/>
      <use xlink:href="#MicrosoftYaHei-64" transform="translate(342.919922 0)"/>
      <use xlink:href="#MicrosoftYaHei-65" transform="translate(406.884766 0)"/>
      <use xlink:href="#MicrosoftYaHei-78" transform="translate(463.623047 0)"/>
     </g>
    </g>
   </g>
  </g>
  <g id="axes_4">
   <g id="patch_20">
    <path d="M 479.9 531.16 
L 853.2 531.16 
L 853.2 309.48 
L 479.9 309.48 
z
" style="fill: #ffffff"/>
   </g>
   <g id="matplotlib.axis_7">
    <g id="xtick_19">
     <g id="line2d_47">
      <g>
       <use xlink:href="#me7947369ea" x="496.868182" y="531.16" style="stroke: #000000; stroke-width: 0.8"/>
      </g>
     </g>
     <g id="text_53">
      <!-- 0 -->
      <g transform="translate(493.936151 546.15375) scale(0.1 -0.1)">
       <use xlink:href="#MicrosoftYaHei-30"/>
      </g>
     </g>
    </g>
    <g id="xtick_20">
     <g id="line2d_48">
      <g>
       <use xlink:href="#me7947369ea" x="564.740909" y="531.16" style="stroke: #000000; stroke-width: 0.8"/>
      </g>
     </g>
     <g id="text_54">
      <!-- 20 -->
      <g transform="translate(558.876847 546.15375) scale(0.1 -0.1)">
       <use xlink:href="#MicrosoftYaHei-32"/>
       <use xlink:href="#MicrosoftYaHei-30" transform="translate(58.642578 0)"/>
      </g>
     </g>
    </g>
    <g id="xtick_21">
     <g id="line2d_49">
      <g>
       <use xlink:href="#me7947369ea" x="632.613636" y="531.16" style="stroke: #000000; stroke-width: 0.8"/>
      </g>
     </g>
     <g id="text_55">
      <!-- 40 -->
      <g transform="translate(626.749574 546.15375) scale(0.1 -0.1)">
       <use xlink:href="#MicrosoftYaHei-34"/>
       <use xlink:href="#MicrosoftYaHei-30" transform="translate(58.642578 0)"/>
      </g>
     </g>
    </g>
    <g id="xtick_22">
     <g id="line2d_50">
      <g>
       <use xlink:href="#me7947369ea" x="700.486364" y="531.16" style="stroke: #000000; stroke-width: 0.8"/>
      </g>
     </g>
     <g id="text_56">
      <!-- 60 -->
      <g transform="translate(694.622301 546.15375) scale(0.1 -0.1)">
       <use xlink:href="#MicrosoftYaHei-36"/>
       <use xlink:href="#MicrosoftYaHei-30" transform="translate(58.642578 0)"/>
      </g>
     </g>
    </g>
    <g id="xtick_23">
     <g id="line2d_51">
      <g>
       <use xlink:href="#me7947369ea" x="768.359091" y="531.16" style="stroke: #000000; stroke-width: 0.8"/>
      </g>
     </g>
     <g id="text_57">
      <!-- 80 -->
      <g transform="translate(762.495028 546.15375) scale(0.1 -0.1)">
       <use xlink:href="#MicrosoftYaHei-38"/>
       <use xlink:href="#MicrosoftYaHei-30" transform="translate(58.642578 0)"/>
      </g>
     </g>
    </g>
    <g id="xtick_24">
     <g id="line2d_52">
      <g>
       <use xlink:href="#me7947369ea" x="836.231818" y="531.16" style="stroke: #000000; stroke-width: 0.8"/>
      </g>
     </g>
     <g id="text_58">
      <!-- 100 -->
      <g transform="translate(827.435724 546.15375) scale(0.1 -0.1)">
       <use xlink:href="#MicrosoftYaHei-31"/>
       <use xlink:href="#MicrosoftYaHei-30" transform="translate(58.642578 0)"/>
       <use xlink:href="#MicrosoftYaHei-30" transform="translate(117.285156 0)"/>
      </g>
     </g>
    </g>
    <g id="text_59">
     <!-- Time -->
     <g transform="translate(654.83125 560.633438) scale(0.1 -0.1)">
      <use xlink:href="#MicrosoftYaHei-54"/>
      <use xlink:href="#MicrosoftYaHei-69" transform="translate(57.324219 0)"/>
      <use xlink:href="#MicrosoftYaHei-6d" transform="translate(83.935547 0)"/>
      <use xlink:href="#MicrosoftYaHei-65" transform="translate(177.636719 0)"/>
     </g>
    </g>
   </g>
   <g id="matplotlib.axis_8">
    <g id="ytick_23">
     <g id="line2d_53">
      <g>
       <use xlink:href="#md3499f836f" x="479.9" y="521.083636" style="stroke: #000000; stroke-width: 0.8"/>
      </g>
     </g>
     <g id="text_60">
      <!-- 0.00 -->
      <g transform="translate(452.9 525.080511) scale(0.1 -0.1)">
       <use xlink:href="#MicrosoftYaHei-30"/>
       <use xlink:href="#MicrosoftYaHei-2e" transform="translate(58.642578 0)"/>
       <use xlink:href="#MicrosoftYaHei-30" transform="translate(82.714844 0)"/>
       <use xlink:href="#MicrosoftYaHei-30" transform="translate(141.357422 0)"/>
      </g>
     </g>
    </g>
    <g id="ytick_24">
     <g id="line2d_54">
      <g>
       <use xlink:href="#md3499f836f" x="479.9" y="479.192842" style="stroke: #000000; stroke-width: 0.8"/>
      </g>
     </g>
     <g id="text_61">
      <!-- 0.02 -->
      <g transform="translate(452.9 483.189717) scale(0.1 -0.1)">
       <use xlink:href="#MicrosoftYaHei-30"/>
       <use xlink:href="#MicrosoftYaHei-2e" transform="translate(58.642578 0)"/>
       <use xlink:href="#MicrosoftYaHei-30" transform="translate(82.714844 0)"/>
       <use xlink:href="#MicrosoftYaHei-32" transform="translate(141.357422 0)"/>
      </g>
     </g>
    </g>
    <g id="ytick_25">
     <g id="line2d_55">
      <g>
       <use xlink:href="#md3499f836f" x="479.9" y="437.302048" style="stroke: #000000; stroke-width: 0.8"/>
      </g>
     </g>
     <g id="text_62">
      <!-- 0.04 -->
      <g transform="translate(452.9 441.298923) scale(0.1 -0.1)">
       <use xlink:href="#MicrosoftYaHei-30"/>
       <use xlink:href="#MicrosoftYaHei-2e" transform="translate(58.642578 0)"/>
       <use xlink:href="#MicrosoftYaHei-30" transform="translate(82.714844 0)"/>
       <use xlink:href="#MicrosoftYaHei-34" transform="translate(141.357422 0)"/>
      </g>
     </g>
    </g>
    <g id="ytick_26">
     <g id="line2d_56">
      <g>
       <use xlink:href="#md3499f836f" x="479.9" y="395.411254" style="stroke: #000000; stroke-width: 0.8"/>
      </g>
     </g>
     <g id="text_63">
      <!-- 0.06 -->
      <g transform="translate(452.9 399.408129) scale(0.1 -0.1)">
       <use xlink:href="#MicrosoftYaHei-30"/>
       <use xlink:href="#MicrosoftYaHei-2e" transform="translate(58.642578 0)"/>
       <use xlink:href="#MicrosoftYaHei-30" transform="translate(82.714844 0)"/>
       <use xlink:href="#MicrosoftYaHei-36" transform="translate(141.357422 0)"/>
      </g>
     </g>
    </g>
    <g id="ytick_27">
     <g id="line2d_57">
      <g>
       <use xlink:href="#md3499f836f" x="479.9" y="353.52046" style="stroke: #000000; stroke-width: 0.8"/>
      </g>
     </g>
     <g id="text_64">
      <!-- 0.08 -->
      <g transform="translate(452.9 357.517335) scale(0.1 -0.1)">
       <use xlink:href="#MicrosoftYaHei-30"/>
       <use xlink:href="#MicrosoftYaHei-2e" transform="translate(58.642578 0)"/>
       <use xlink:href="#MicrosoftYaHei-30" transform="translate(82.714844 0)"/>
       <use xlink:href="#MicrosoftYaHei-38" transform="translate(141.357422 0)"/>
      </g>
     </g>
    </g>
    <g id="ytick_28">
     <g id="line2d_58">
      <g>
       <use xlink:href="#md3499f836f" x="479.9" y="311.629665" style="stroke: #000000; stroke-width: 0.8"/>
      </g>
     </g>
     <g id="text_65">
      <!-- 0.10 -->
      <g transform="translate(452.9 315.62654) scale(0.1 -0.1)">
       <use xlink:href="#MicrosoftYaHei-30"/>
       <use xlink:href="#MicrosoftYaHei-2e" transform="translate(58.642578 0)"/>
       <use xlink:href="#MicrosoftYaHei-31" transform="translate(82.714844 0)"/>
       <use xlink:href="#MicrosoftYaHei-30" transform="translate(141.357422 0)"/>
      </g>
     </g>
    </g>
    <g id="text_66">
     <!-- BLER -->
     <g transform="translate(446.414062 432.036406) rotate(-90) scale(0.1 -0.1)">
      <defs>
       <path id="MicrosoftYaHei-4c" d="M 3178 0 
L 625 0 
L 625 4841 
L 1250 4841 
L 1250 553 
L 3178 553 
L 3178 0 
z
" transform="scale(0.015625)"/>
       <path id="MicrosoftYaHei-45" d="M 3228 0 
L 625 0 
L 625 4841 
L 3119 4841 
L 3119 4284 
L 1250 4284 
L 1250 2734 
L 2981 2734 
L 2981 2181 
L 1250 2181 
L 1250 553 
L 3228 553 
L 3228 0 
z
" transform="scale(0.015625)"/>
      </defs>
      <use xlink:href="#MicrosoftYaHei-42"/>
      <use xlink:href="#MicrosoftYaHei-4c" transform="translate(62.744141 0)"/>
      <use xlink:href="#MicrosoftYaHei-45" transform="translate(114.0625 0)"/>
      <use xlink:href="#MicrosoftYaHei-52" transform="translate(169.042969 0)"/>
     </g>
    </g>
   </g>
   <g id="line2d_59">
    <path d="M 496.868182 521.083605 
L 500.261818 520.322752 
L 503.655455 435.016322 
L 507.049091 454.091046 
L 510.442727 359.233941 
L 513.836364 465.375177 
L 517.23 460.86877 
L 520.623636 389.183442 
L 524.017273 438.25762 
L 527.410909 493.592136 
L 530.804545 520.825182 
L 534.198182 521.083604 
L 537.591818 521.04091 
L 540.985455 521.083542 
L 544.379091 521.083636 
L 547.772727 521.083636 
L 551.166364 521.083636 
L 554.56 521.083629 
L 557.953636 514.50424 
L 561.347273 354.696441 
L 564.740909 430.793779 
L 568.134545 401.015874 
L 571.528182 458.484799 
L 574.921818 472.484161 
L 578.315455 418.870679 
L 581.709091 331.950587 
L 585.102727 343.653993 
L 588.496364 521.073513 
L 591.89 521.083571 
L 595.283636 521.083633 
L 598.677273 521.083636 
L 602.070909 521.083636 
L 605.464545 521.083636 
L 608.858182 521.083636 
L 612.251818 521.083636 
L 615.645455 521.083636 
L 619.039091 521.083626 
L 622.432727 516.488984 
L 625.826364 521.069126 
L 629.22 520.825182 
L 632.613636 520.713205 
L 636.007273 520.322752 
L 639.400909 521.073513 
L 642.794545 519.99321 
L 646.188182 521.083633 
L 649.581818 521.083621 
L 652.975455 521.083621 
L 656.369091 521.082822 
L 659.762727 521.08336 
L 663.156364 521.083634 
L 666.55 521.083631 
L 669.943636 521.08336 
L 673.337273 521.078709 
L 676.730909 521.022395 
L 680.124545 511.666014 
L 683.518182 521.022395 
L 686.911818 521.083614 
L 690.305455 520.825182 
L 693.699091 520.322752 
L 697.092727 430.793779 
L 700.486364 486.259073 
L 703.88 376.27047 
L 707.273636 493.592136 
L 710.667273 365.107568 
L 714.060909 370.784615 
L 717.454545 472.484161 
L 720.848182 409.756471 
L 724.241818 350.042989 
L 727.635455 452.117995 
L 731.029091 454.091046 
L 734.422727 346.875121 
L 737.816364 333.664099 
L 741.21 319.556364 
L 744.603636 519.99321 
L 747.997273 521.022395 
L 751.390909 521.083068 
L 754.784545 520.957825 
L 758.178182 521.083571 
L 761.571818 521.081238 
L 764.965455 521.083068 
L 768.359091 521.083634 
L 771.752727 521.069126 
L 775.146364 521.062839 
L 778.54 511.666014 
L 781.933636 343.653993 
L 785.327273 439.049475 
L 788.720909 521.083626 
L 792.114545 521.083571 
L 795.508182 521.076574 
L 798.901818 521.083621 
L 802.295455 521.083635 
L 805.689091 521.069126 
L 809.082727 521.083629 
L 812.476364 521.083636 
L 815.87 521.083636 
L 819.263636 521.083635 
L 822.657273 521.083443 
L 826.050909 521.083636 
L 829.444545 521.083068 
L 832.838182 521.083571 
L 836.231818 521.082469 
" clip-path="url(#p112ac5064e)" style="fill: none; stroke: #ff0000; stroke-width: 1.5; stroke-linecap: square"/>
   </g>
   <g id="patch_21">
    <path d="M 479.9 531.16 
L 479.9 309.48 
" style="fill: none; stroke: #000000; stroke-width: 0.8; stroke-linejoin: miter; stroke-linecap: square"/>
   </g>
   <g id="patch_22">
    <path d="M 853.2 531.16 
L 853.2 309.48 
" style="fill: none; stroke: #000000; stroke-width: 0.8; stroke-linejoin: miter; stroke-linecap: square"/>
   </g>
   <g id="patch_23">
    <path d="M 479.9 531.16 
L 853.2 531.16 
" style="fill: none; stroke: #000000; stroke-width: 0.8; stroke-linejoin: miter; stroke-linecap: square"/>
   </g>
   <g id="patch_24">
    <path d="M 479.9 309.48 
L 853.2 309.48 
" style="fill: none; stroke: #000000; stroke-width: 0.8; stroke-linejoin: miter; stroke-linecap: square"/>
   </g>
   <g id="text_67">
    <!-- BLER History -->
    <g transform="translate(629.9725 303.48) scale(0.12 -0.12)">
     <use xlink:href="#MicrosoftYaHei-42"/>
     <use xlink:href="#MicrosoftYaHei-4c" transform="translate(62.744141 0)"/>
     <use xlink:href="#MicrosoftYaHei-45" transform="translate(114.0625 0)"/>
     <use xlink:href="#MicrosoftYaHei-52" transform="translate(169.042969 0)"/>
     <use xlink:href="#MicrosoftYaHei-20" transform="translate(234.326172 0)"/>
     <use xlink:href="#MicrosoftYaHei-48" transform="translate(263.916016 0)"/>
     <use xlink:href="#MicrosoftYaHei-69" transform="translate(341.259766 0)"/>
     <use xlink:href="#MicrosoftYaHei-73" transform="translate(367.871094 0)"/>
     <use xlink:href="#MicrosoftYaHei-74" transform="translate(414.160156 0)"/>
     <use xlink:href="#MicrosoftYaHei-6f" transform="translate(450.541016 0)"/>
     <use xlink:href="#MicrosoftYaHei-72" transform="translate(514.115234 0)"/>
     <use xlink:href="#MicrosoftYaHei-79" transform="translate(556.673828 0)"/>
    </g>
   </g>
   <g id="legend_4">
    <g id="patch_25">
     <path d="M 790.767187 332.959688 
L 846.2 332.959688 
Q 848.2 332.959688 848.2 330.959688 
L 848.2 316.48 
Q 848.2 314.48 846.2 314.48 
L 790.767187 314.48 
Q 788.767187 314.48 788.767187 316.48 
L 788.767187 330.959688 
Q 788.767187 332.959688 790.767187 332.959688 
z
" style="fill: #ffffff; opacity: 0.8; stroke: #cccccc; stroke-linejoin: miter"/>
    </g>
    <g id="line2d_60">
     <path d="M 792.767187 322.97375 
L 802.767187 322.97375 
L 812.767187 322.97375 
" style="fill: none; stroke: #ff0000; stroke-width: 1.5; stroke-linecap: square"/>
    </g>
    <g id="text_68">
     <!-- BLER -->
     <g transform="translate(820.767187 326.47375) scale(0.1 -0.1)">
      <use xlink:href="#MicrosoftYaHei-42"/>
      <use xlink:href="#MicrosoftYaHei-4c" transform="translate(62.744141 0)"/>
      <use xlink:href="#MicrosoftYaHei-45" transform="translate(114.0625 0)"/>
      <use xlink:href="#MicrosoftYaHei-52" transform="translate(169.042969 0)"/>
     </g>
    </g>
   </g>
  </g>
 </g>
 <defs>
  <clipPath id="p4e1eb47db4">
   <rect x="53.3" y="26.88" width="373.3" height="221.68"/>
  </clipPath>
  <clipPath id="p315b1cf676">
   <rect x="479.9" y="26.88" width="373.3" height="221.68"/>
  </clipPath>
  <clipPath id="p74a46064c6">
   <rect x="53.3" y="309.48" width="373.3" height="221.68"/>
  </clipPath>
  <clipPath id="p112ac5064e">
   <rect x="479.9" y="309.48" width="373.3" height="221.68"/>
  </clipPath>
 </defs>
</svg>
